<?xml version="1.0" encoding="utf-8"?>
<svg xmlns="http://www.w3.org/2000/svg" width="512" height="710" viewBox="0 0 512 710">

  <!-- Cat logo -->
  <g>
    <path fill="#141414" d="M256.701,505.5c-56.246,0-110.675-17.834-153.263-50.217c-41.811-31.795-69.763-75.618-78.705-123.398
        l-1.612-8.613c-0.091-0.485-0.228-0.954-0.407-1.402c-4.64-24.447-14.624-84.483-14.201-146.332l0.017-2.906
        c0.333-57.461,3.464-100.983,9.305-129.358c5.312-25.808,11.242-30.74,12.377-31.466c2.356-1.51,7.251-3.308,17.193-3.308
        c32.943,0,85.476,19.884,103.232,30.1c43.609,25.091,65.124,45.159,68.772,48.7c1.809,2.227,4.393,3.735,7.367,4.28
        c1.045,0.19,2.165,0.278,3.531,0.278c2.789,0,6.901-0.379,11.663-0.818c5.212-0.48,11.017-1.015,14.73-1.015
        c3.788,0,9.696,0.565,14.908,1.064c4.938,0.471,9.153,0.873,12.038,0.873c6.554,0,9.915-2.869,11.582-5.279
        C300.465,81.7,321.821,62.5,363.361,38.6C381.12,28.383,433.654,8.5,466.595,8.5c9.941,0,14.836,1.798,17.19,3.306
        c1.136,0.727,7.066,5.659,12.379,31.465c5.841,28.375,8.972,71.895,9.305,129.352l0.019,2.909
        c0.411,60.116-8.998,118.473-13.808,144.247c-0.672,0.903-1.144,1.964-1.355,3.114l-1.554,8.444
        c-8.817,47.904-36.723,91.859-78.577,123.768C367.569,487.604,313.059,505.5,256.701,505.5z"/>
    <path fill="#FFFFFF" d="M466.595,16c8.473,0,11.926,1.449,12.915,1.987c0.835,0.897,5.672,6.972,10.162,31.169
        c5.192,27.979,7.984,69.535,8.297,123.519l0.018,2.913c0.4,58.429-8.586,115.226-13.421,141.417
        c-0.768,1.392-1.321,2.918-1.619,4.533l-1.553,8.443c-8.48,46.067-35.381,88.386-75.749,119.162
        C364.321,480.649,311.425,498,256.701,498c-54.615,0-107.433-17.291-148.724-48.688c-40.328-30.666-67.273-72.859-75.872-118.807
        l-1.612-8.614c-0.129-0.688-0.304-1.359-0.522-2.01c-4.643-24.583-14.373-83.592-13.958-144.306l0.017-2.902
        c0.313-53.979,3.104-95.536,8.296-123.517c4.49-24.196,9.327-30.273,10.162-31.171C35.477,17.449,38.932,16,47.405,16
        c31.647,0,82.325,19.224,99.492,29.1c41.937,24.128,62.839,43.302,67.009,47.31c2.914,3.408,6.941,5.708,11.532,6.548
        c1.492,0.272,3.039,0.399,4.87,0.399c3.131,0,7.192-0.374,12.334-0.848l0.098-0.009c4.719-0.435,10.591-0.976,13.962-0.976
        c3.428,0,9.398,0.571,14.231,1.034c5.29,0.505,9.469,0.904,12.715,0.904c9.284,0,14.478-4.243,17.187-7.757
        c5.706-5.368,26.457-23.699,66.268-46.604C384.271,35.223,434.95,16,466.595,16z"/>
  </g>
  <ellipse fill="#FFFFFF" cx="141.159" cy="268" rx="105.827" ry="112.827"/>
  <ellipse fill="#1A1A1A" cx="141.166" cy="267.683" rx="60.25" ry="70.037"/>
  <ellipse fill="#FFFFFF" cx="372.841" cy="268" rx="105.827" ry="112.827"/>
  <ellipse fill="#1A1A1A" cx="372.834" cy="267.683" rx="60.25" ry="70.037"/>
  <path fill="#FFFFFF" d="M313,429.5c0,30.928-25.072,56-56,56s-56-25.072-56-56S313,398.572,313,429.5z"/>

  <!-- Decorative separator -->
  <line x1="106" y1="535" x2="406" y2="535" stroke="#333333" stroke-width="1"/>
  <circle cx="106" cy="535" r="2" fill="#444444"/>
  <circle cx="406" cy="535" r="2" fill="#444444"/>

  <!-- Memorial text -->
  <text x="256" y="590"
        font-family="'Segoe Script', 'Dancing Script', 'URW Chancery L', 'Comic Sans MS', cursive"
        font-size="30"
        font-style="italic"
        fill="#DDDDDD"
        text-anchor="middle"
        letter-spacing="0.5">In memory to our beloved Nounours</text>

  <!-- Signature -->
  <text x="256" y="648"
        font-family="'Segoe Script', 'Dancing Script', 'URW Chancery L', 'Comic Sans MS', cursive"
        font-size="22"
        font-style="italic"
        fill="#777777"
        text-anchor="middle">&#x2014; Antidote1911 &amp; Cancrelette</text>

</svg>
