<?xml version="1.0" encoding="utf-8"?>
<svg xmlns="http://www.w3.org/2000/svg" xmlns:xlink="http://www.w3.org/1999/xlink"
     width="512" height="483" viewBox="0 0 512 483">

  <g transform="translate(76.80,10) scale(0.7)">
    <path fill="#141414" d="M256.701,505.5c-56.246,0-110.675-17.834-153.263-50.217c-41.811-31.795-69.763-75.618-78.705-123.398
      l-1.612-8.613c-0.091-0.485-0.228-0.954-0.407-1.402c-4.64-24.447-14.624-84.483-14.201-146.332l0.017-2.906
      c0.333-57.461,3.464-100.983,9.305-129.358c5.312-25.808,11.242-30.74,12.377-31.466c2.356-1.51,7.251-3.308,17.193-3.308
      c32.943,0,85.476,19.884,103.232,30.1c43.609,25.091,65.124,45.159,68.772,48.7c1.809,2.227,4.393,3.735,7.367,4.28
      c1.045,0.19,2.165,0.278,3.531,0.278c2.789,0,6.901-0.379,11.663-0.818c5.212-0.48,11.017-1.015,14.73-1.015
      c3.788,0,9.696,0.565,14.908,1.064c4.938,0.471,9.153,0.873,12.038,0.873c6.554,0,9.915-2.869,11.582-5.279
      C300.465,81.7,321.821,62.5,363.361,38.6C381.12,28.383,433.654,8.5,466.595,8.5c9.941,0,14.836,1.798,17.19,3.306
      c1.136,0.727,7.066,5.659,12.379,31.465c5.841,28.375,8.972,71.895,9.305,129.352l0.019,2.909
      c0.411,60.116-8.998,118.473-13.808,144.247c-0.672,0.903-1.144,1.964-1.355,3.114l-1.554,8.444
      c-8.817,47.904-36.723,91.859-78.577,123.768C367.569,487.604,313.059,505.5,256.701,505.5z"/>
    <path fill="#FFFFFF" d="M466.595,16c8.473,0,11.926,1.449,12.915,1.987c0.835,0.897,5.672,6.972,10.162,31.169
      c5.192,27.979,7.984,69.535,8.297,123.519l0.018,2.913c0.4,58.429-8.586,115.226-13.421,141.417
      c-0.768,1.392-1.321,2.918-1.619,4.533l-1.553,8.443c-8.48,46.067-35.381,88.386-75.749,119.162
      C364.321,480.649,311.425,498,256.701,498c-54.615,0-107.433-17.291-148.724-48.688c-40.328-30.666-67.273-72.859-75.872-118.807
      l-1.612-8.614c-0.129-0.688-0.304-1.359-0.522-2.01c-4.643-24.583-14.373-83.592-13.958-144.306l0.017-2.902
      c0.313-53.979,3.104-95.536,8.296-123.517c4.49-24.196,9.327-30.273,10.162-31.171C35.477,17.449,38.932,16,47.405,16
      c31.647,0,82.325,19.224,99.492,29.1c41.937,24.128,62.839,43.302,67.009,47.31c2.914,3.408,6.941,5.708,11.532,6.548
      c1.492,0.272,3.039,0.399,4.87,0.399c3.131,0,7.192-0.374,12.334-0.848l0.098-0.009c4.719-0.435,10.591-0.976,13.962-0.976
      c3.428,0,9.398,0.571,14.231,1.034c5.29,0.505,9.469,0.904,12.715,0.904c9.284,0,14.478-4.243,17.187-7.757
      c5.706-5.368,26.457-23.699,66.268-46.604C384.271,35.223,434.95,16,466.595,16
      M466.595,1c-34.746,0-88.109,20.246-106.973,31.098c-44.175,25.416-66.026,45.703-70.279,49.84
      c-0.645,1.308-2.19,2.523-5.696,2.523c-2.538,0-6.608-0.389-11.323-0.839c-5.384-0.515-11.487-1.098-15.623-1.098
      c-4.071,0-10.077,0.555-15.377,1.043c-4.596,0.424-8.565,0.79-11.016,0.79c-0.908,0-1.6-0.05-2.179-0.155
      c-1.455-0.266-2.47-0.993-3.09-1.888c-3.138-3.103-24.945-23.913-70.661-50.216C135.514,21.246,82.15,1,47.405,1
      c-9.437,0-16.583,1.51-21.237,4.49C17.109,11.291,1.795,40.712,1.03,172.587l-0.017,2.899
      c-0.44,64.392,10.368,127.164,14.623,149.303l0.113-0.138l1.612,8.614c9.285,49.613,38.243,95.066,81.537,127.988
      C142.783,494.622,198.825,513,256.701,513c57.988,0,114.115-18.441,158.038-51.929
      c43.34-33.041,72.251-78.633,81.407-128.375l1.553-8.445l0.625,0.739c4.228-21.954,15.104-84.914,14.662-149.505
      l-0.018-2.904C512.203,40.711,496.889,11.291,487.83,5.49C483.177,2.51,476.033,1,466.595,1L466.595,1z"/>
    <ellipse fill="#FFFFFF" cx="141.159" cy="268" rx="105.827" ry="112.827"/>
    <ellipse fill="#1A1A1A" cx="141.166" cy="267.683" rx="60.25" ry="70.037"/>
    <ellipse fill="#FFFFFF" cx="372.841" cy="268" rx="105.827" ry="112.827"/>
    <ellipse fill="#1A1A1A" cx="372.834" cy="267.683" rx="60.25" ry="70.037"/>
    <path fill="#FFFFFF" d="M313,429.5c0,30.928-25.072,56-56,56s-56-25.072-56-56S313,398.572,313,429.5z"/>
  </g>

  <path fill="#CCCCCC" d="M15.18603515625 413.77187499999997 17.94189453125 414.22011718749997 17.80908203125 415.09999999999997H8.92724609375L9.06005859375 414.22011718749997L11.98193359375 413.77187499999997L15.41845703125 394.14882812499997L12.66259765625 393.71718749999997L12.79541015625 392.83730468749997H21.71044921875L21.57763671875 393.71718749999997L18.62255859375 394.14882812499997Z M32.91650390625 402.68203124999997Q32.91650390625 401.93496093749997 32.51806640625 401.47011718749997Q32.11962890625 401.00527343749997 31.25634765625 401.00527343749997Q30.02783203125 401.00527343749997 28.5751953125 402.05117187499997Q27.12255859375 403.09707031249997 26.17626953125 404.64101562499997L24.35009765625 415.09999999999997H21.59423828125L24.13427734375 400.64003906249997L22.17529296875 400.22499999999997L22.30810546875 399.47792968749997H26.92333984375L26.47509765625 402.66542968749997Q27.86962890625 400.87246093749997 29.36376953125 399.97597656249997Q30.85791015625 399.07949218749997 32.30224609375 399.07949218749997Q33.97900390625 399.07949218749997 34.82568359375 399.98427734374997Q35.67236328125 400.88906249999997 35.67236328125 402.58242187499997Q35.67236328125 402.81484374999997 35.60595703125 403.29628906249997Q35.53955078125 403.77773437499997 33.79638671875 413.95449218749997L35.97119140625 414.35292968749997L35.83837890625 415.09999999999997H30.84130859375L32.53466796875 405.43789062499997Q32.91650390625 403.32949218749997 32.91650390625 402.68203124999997Z M60.37548828125 402.71523437499997Q61.50439453125 401.10488281249997 62.93212890625 400.09218749999997Q64.35986328125 399.07949218749997 65.67138671875 399.07949218749997Q67.06591796875 399.07949218749997 67.87109375 399.96767578124997Q68.67626953125 400.85585937499997 68.67626953125 402.53261718749997Q68.67626953125 402.89785156249997 68.6015625 403.48720703124997Q68.52685546875 404.07656249999997 66.83349609375 413.93789062499997L69.00830078125 414.35292968749997L68.85888671875 415.09999999999997H63.86181640625L65.57177734375 405.43789062499997Q65.95361328125 403.42910156249997 65.95361328125 402.68203124999997Q65.95361328125 401.93496093749997 65.60498046875 401.47841796874997Q65.25634765625 401.02187499999997 64.50927734375 401.02187499999997Q63.77880859375 401.02187499999997 62.76611328125 401.71914062499997Q61.75341796875 402.41640624999997 60.931640625 403.50380859374997Q60.10986328125 404.59121093749997 59.94384765625 405.53749999999997L58.30029296875 415.09999999999997H55.54443359375L57.23779296875 405.43789062499997Q57.65283203125 403.26308593749997 57.65283203125 402.68203124999997Q57.65283203125 401.93496093749997 57.28759765625 401.47841796874997Q56.92236328125 401.02187499999997 56.14208984375 401.02187499999997Q55.41162109375 401.02187499999997 54.34912109375 401.76064453124997Q53.28662109375 402.49941406249997 52.47314453125 403.55361328124997Q51.65966796875 404.60781249999997 51.51025390625 405.53749999999997L49.86669921875 415.09999999999997H47.11083984375L49.65087890625 400.65664062499997L47.69189453125 400.24160156249997L47.82470703125 399.49453124999997H52.43994140625L51.97509765625 402.71523437499997Q53.13720703125 401.07167968749997 54.58154296875 400.07558593749997Q56.02587890625 399.07949218749997 57.30419921875 399.07949218749997Q58.76513671875 399.07949218749997 59.5703125 400.00087890624997Q60.37548828125 400.92226562499997 60.37548828125 402.71523437499997Z M84.76318359375 402.48281249999997Q84.76318359375 404.74062499999997 81.97412109375 406.33437499999997Q79.18505859375 407.92812499999997 74.48681640625 408.24355468749997L74.42041015625 409.45546874999997Q74.42041015625 411.56386718749997 75.30859375 412.63466796874997Q76.19677734375 413.70546874999997 77.93994140625 413.70546874999997Q79.43408203125 413.70546874999997 80.69580078125 413.19912109374997Q81.95751953125 412.69277343749997 83.05322265625 412.04531249999997L83.53466796875 412.74257812499997Q82.00732421875 414.03749999999997 80.3056640625 414.73476562499997Q78.60400390625 415.43203124999997 77.07666015625 415.43203124999997Q74.38720703125 415.43203124999997 72.9345703125 413.92958984374997Q71.48193359375 412.42714843749997 71.48193359375 409.62148437499997Q71.48193359375 406.84902343749997 72.65234375 404.45009765624997Q73.82275390625 402.05117187499997 75.89794921875 400.56533203124997Q77.97314453125 399.07949218749997 80.24755859375 399.07949218749997Q82.28955078125 399.07949218749997 83.5263671875 400.01748046874997Q84.76318359375 400.95546874999997 84.76318359375 402.48281249999997ZM74.61962890625 407.19765624999997Q77.90673828125 406.94863281249997 79.88232421875 405.65371093749997Q81.85791015625 404.35878906249997 81.85791015625 402.48281249999997Q81.85791015625 401.55312499999997 81.3515625 400.95546874999997Q80.84521484375 400.35781249999997 79.88232421875 400.35781249999997Q78.72021484375 400.35781249999997 77.62451171875 401.30410156249997Q76.52880859375 402.25039062499997 75.73193359375 403.84414062499997Q74.93505859375 405.43789062499997 74.61962890625 407.19765624999997Z M100.02001953125 402.71523437499997Q101.14892578125 401.10488281249997 102.57666015625 400.09218749999997Q104.00439453125 399.07949218749997 105.31591796875 399.07949218749997Q106.71044921875 399.07949218749997 107.515625 399.96767578124997Q108.32080078125 400.85585937499997 108.32080078125 402.53261718749997Q108.32080078125 402.89785156249997 108.24609375 403.48720703124997Q108.17138671875 404.07656249999997 106.47802734375 413.93789062499997L108.65283203125 414.35292968749997L108.50341796875 415.09999999999997H103.50634765625L105.21630859375 405.43789062499997Q105.59814453125 403.42910156249997 105.59814453125 402.68203124999997Q105.59814453125 401.93496093749997 105.24951171875 401.47841796874997Q104.90087890625 401.02187499999997 104.15380859375 401.02187499999997Q103.42333984375 401.02187499999997 102.41064453125 401.71914062499997Q101.39794921875 402.41640624999997 100.576171875 403.50380859374997Q99.75439453125 404.59121093749997 99.58837890625 405.53749999999997L97.94482421875 415.09999999999997H95.18896484375L96.88232421875 405.43789062499997Q97.29736328125 403.26308593749997 97.29736328125 402.68203124999997Q97.29736328125 401.93496093749997 96.93212890625 401.47841796874997Q96.56689453125 401.02187499999997 95.78662109375 401.02187499999997Q95.05615234375 401.02187499999997 93.99365234375 401.76064453124997Q92.93115234375 402.49941406249997 92.11767578125 403.55361328124997Q91.30419921875 404.60781249999997 91.15478515625 405.53749999999997L89.51123046875 415.09999999999997H86.75537109375L89.29541015625 400.65664062499997L87.33642578125 400.24160156249997L87.46923828125 399.49453124999997H92.08447265625L91.61962890625 402.71523437499997Q92.78173828125 401.07167968749997 94.22607421875 400.07558593749997Q95.67041015625 399.07949218749997 96.94873046875 399.07949218749997Q98.40966796875 399.07949218749997 99.21484375 400.00087890624997Q100.02001953125 400.92226562499997 100.02001953125 402.71523437499997Z M114.01513671875 409.45546874999997Q114.01513671875 411.69667968749997 114.88671875 412.88369140624997Q115.75830078125 414.07070312499997 117.31884765625 414.07070312499997Q118.82958984375 414.07070312499997 120.19921875 412.85878906249997Q121.56884765625 411.64687499999997 122.36572265625 409.54677734374997Q123.16259765625 407.44667968749997 123.16259765625 405.03945312499997Q123.16259765625 402.74843749999997 122.291015625 401.56142578124997Q121.41943359375 400.37441406249997 119.79248046875 400.37441406249997Q118.28173828125 400.37441406249997 116.9287109375 401.58632812499997Q115.57568359375 402.79824218749997 114.79541015625 404.89833984374997Q114.01513671875 406.99843749999997 114.01513671875 409.45546874999997ZM117.16943359375 415.43203124999997Q114.41357421875 415.43203124999997 112.75341796875 413.66396484374997Q111.09326171875 411.89589843749997 111.09326171875 408.89101562499997Q111.09326171875 406.21816406249997 112.23876953125 403.94374999999997Q113.38427734375 401.66933593749997 115.41796875 400.37441406249997Q117.45166015625 399.07949218749997 119.99169921875 399.07949218749997Q122.74755859375 399.07949218749997 124.40771484375 400.84755859374997Q126.06787109375 402.61562499999997 126.06787109375 405.62050781249997Q126.06787109375 408.29335937499997 124.92236328125 410.56777343749997Q123.77685546875 412.84218749999997 121.7431640625 414.13710937499997Q119.70947265625 415.43203124999997 117.16943359375 415.43203124999997Z M139.10009765625 399.07949218749997Q139.93017578125 399.07949218749997 140.41162109375 399.21230468749997L139.68115234375 403.29628906249997H138.96728515625L138.33642578125 401.18789062499997Q137.00830078125 401.18789062499997 135.5888671875 402.20058593749997Q134.16943359375 403.21328124999997 132.99072265625 404.87343749999997L131.21435546875 415.09999999999997H128.45849609375L130.99853515625 400.65664062499997L129.03955078125 400.24160156249997L129.17236328125 399.49453124999997H133.77099609375L133.25634765625 403.01406249999997Q134.50146484375 401.13808593749997 136.037109375 400.10878906249997Q137.57275390625 399.07949218749997 139.10009765625 399.07949218749997Z M141.17529296875 399.49453124999997H145.42529296875L147.83251953125 411.64687499999997L151.73388671875 404.90664062499997Q152.79638671875 403.04726562499997 152.79638671875 401.70253906249997Q152.79638671875 401.08828124999997 152.44775390625 400.72304687499997Q152.09912109375 400.35781249999997 151.70068359375 400.24160156249997L151.83349609375 399.49453124999997H154.98779296875Q155.41943359375 399.87636718749997 155.41943359375 400.54042968749997Q155.41943359375 401.85195312499997 154.04150390625 404.19277343749997L147.46728515625 415.26601562499997Q145.57470703125 418.48671874999997 144.470703125 419.83144531249997Q143.36669921875 421.17617187499997 142.28759765625 421.80703124999997Q141.20849609375 422.43789062499997 139.94677734375 422.43789062499997Q138.60205078125 422.43789062499997 137.47314453125 422.13906249999997L138.08740234375 418.76894531249997H138.83447265625L139.10009765625 420.36269531249997Q139.51513671875 420.74453124999997 140.46142578125 420.74453124999997Q142.70263671875 420.74453124999997 145.19287109375 416.26210937499997L145.93994140625 414.90078124999997L142.90185546875 400.65664062499997L141.04248046875 400.24160156249997Z M168.28564453125 412.21132812499997Q168.28564453125 412.95839843749997 168.6591796875 413.33193359374997Q169.03271484375 413.70546874999997 169.61376953125 413.70546874999997Q170.82568359375 413.70546874999997 172.13720703125 413.20742187499997L172.48583984375 413.98769531249997Q170.44384765625 415.43203124999997 168.35205078125 415.43203124999997Q167.04052734375 415.43203124999997 166.28515625 414.63515624999997Q165.52978515625 413.83828124999997 165.52978515625 412.41054687499997Q165.52978515625 411.92910156249997 165.62109375 411.27333984374997Q165.71240234375 410.61757812499997 167.43896484375 400.88906249999997H165.39697265625L165.52978515625 400.14199218749997L167.73779296875 399.49453124999997L170.01220703125 395.95839843749997H171.07470703125L170.46044921875 399.49453124999997H174.02978515625L173.76416015625 400.88906249999997H170.19482421875L168.58447265625 410.00332031249997Q168.28564453125 411.53066406249997 168.28564453125 412.21132812499997Z M177.28369140625 409.45546874999997Q177.28369140625 411.69667968749997 178.1552734375 412.88369140624997Q179.02685546875 414.07070312499997 180.58740234375 414.07070312499997Q182.09814453125 414.07070312499997 183.4677734375 412.85878906249997Q184.83740234375 411.64687499999997 185.63427734375 409.54677734374997Q186.43115234375 407.44667968749997 186.43115234375 405.03945312499997Q186.43115234375 402.74843749999997 185.5595703125 401.56142578124997Q184.68798828125 400.37441406249997 183.06103515625 400.37441406249997Q181.55029296875 400.37441406249997 180.197265625 401.58632812499997Q178.84423828125 402.79824218749997 178.06396484375 404.89833984374997Q177.28369140625 406.99843749999997 177.28369140625 409.45546874999997ZM180.43798828125 415.43203124999997Q177.68212890625 415.43203124999997 176.02197265625 413.66396484374997Q174.36181640625 411.89589843749997 174.36181640625 408.89101562499997Q174.36181640625 406.21816406249997 175.50732421875 403.94374999999997Q176.65283203125 401.66933593749997 178.6865234375 400.37441406249997Q180.72021484375 399.07949218749997 183.26025390625 399.07949218749997Q186.01611328125 399.07949218749997 187.67626953125 400.84755859374997Q189.33642578125 402.61562499999997 189.33642578125 405.62050781249997Q189.33642578125 408.29335937499997 188.19091796875 410.56777343749997Q187.04541015625 412.84218749999997 185.01171875 414.13710937499997Q182.97802734375 415.43203124999997 180.43798828125 415.43203124999997Z M202.78369140625 409.45546874999997Q202.78369140625 411.69667968749997 203.6552734375 412.88369140624997Q204.52685546875 414.07070312499997 206.08740234375 414.07070312499997Q207.59814453125 414.07070312499997 208.9677734375 412.85878906249997Q210.33740234375 411.64687499999997 211.13427734375 409.54677734374997Q211.93115234375 407.44667968749997 211.93115234375 405.03945312499997Q211.93115234375 402.74843749999997 211.0595703125 401.56142578124997Q210.18798828125 400.37441406249997 208.56103515625 400.37441406249997Q207.05029296875 400.37441406249997 205.697265625 401.58632812499997Q204.34423828125 402.79824218749997 203.56396484375 404.89833984374997Q202.78369140625 406.99843749999997 202.78369140625 409.45546874999997ZM205.93798828125 415.43203124999997Q203.18212890625 415.43203124999997 201.52197265625 413.66396484374997Q199.86181640625 411.89589843749997 199.86181640625 408.89101562499997Q199.86181640625 406.21816406249997 201.00732421875 403.94374999999997Q202.15283203125 401.66933593749997 204.1865234375 400.37441406249997Q206.22021484375 399.07949218749997 208.76025390625 399.07949218749997Q211.51611328125 399.07949218749997 213.17626953125 400.84755859374997Q214.83642578125 402.61562499999997 214.83642578125 405.62050781249997Q214.83642578125 408.29335937499997 213.69091796875 410.56777343749997Q212.54541015625 412.84218749999997 210.51171875 414.13710937499997Q208.47802734375 415.43203124999997 205.93798828125 415.43203124999997Z M220.29833984375 411.89589843749997Q220.29833984375 412.64296874999997 220.69677734375 413.10781249999997Q221.09521484375 413.57265624999997 221.95849609375 413.57265624999997Q223.20361328125 413.57265624999997 224.64794921875 412.53505859374997Q226.09228515625 411.49746093749997 227.02197265625 409.98671874999997L228.86474609375 399.49453124999997H231.62060546875L229.08056640625 413.93789062499997L231.03955078125 414.35292968749997L230.90673828125 415.09999999999997H226.29150390625L226.73974609375 411.89589843749997Q225.36181640625 413.67226562499997 223.86767578125 414.58535156249997Q222.37353515625 415.49843749999997 220.91259765625 415.49843749999997Q219.23583984375 415.49843749999997 218.38916015625 414.59365234374997Q217.54248046875 413.68886718749997 217.54248046875 411.99550781249997Q217.54248046875 411.74648437499997 217.6337890625 411.10732421874997Q217.72509765625 410.46816406249997 219.41845703125 400.64003906249997L217.57568359375 400.24160156249997L217.70849609375 399.49453124999997H222.37353515625L220.68017578125 409.14003906249997Q220.29833984375 411.23183593749997 220.29833984375 411.89589843749997Z M244.86865234375 399.07949218749997Q245.69873046875 399.07949218749997 246.18017578125 399.21230468749997L245.44970703125 403.29628906249997H244.73583984375L244.10498046875 401.18789062499997Q242.77685546875 401.18789062499997 241.357421875 402.20058593749997Q239.93798828125 403.21328124999997 238.75927734375 404.87343749999997L236.98291015625 415.09999999999997H234.22705078125L236.76708984375 400.65664062499997L234.80810546875 400.24160156249997L234.94091796875 399.49453124999997H239.53955078125L239.02490234375 403.01406249999997Q240.27001953125 401.13808593749997 241.8056640625 400.10878906249997Q243.34130859375 399.07949218749997 244.86865234375 399.07949218749997Z M259.64404296875 392.65468749999997 257.43603515625 392.25624999999997 257.56884765625 391.50917968749997H262.54931640625L261.32080078125 398.83046874999997Q261.03857421875 400.72304687499997 260.67333984375 402.03457031249997Q262.00146484375 400.67324218749997 263.404296875 399.87636718749997Q264.80712890625 399.07949218749997 265.98583984375 399.07949218749997Q268.06103515625 399.07949218749997 269.30615234375 400.56533203124997Q270.55126953125 402.05117187499997 270.55126953125 404.62441406249997Q270.55126953125 407.47988281249997 269.314453125 410.01162109374997Q268.07763671875 412.54335937499997 265.90283203125 413.98769531249997Q263.72802734375 415.43203124999997 261.15478515625 415.43203124999997Q259.69384765625 415.43203124999997 258.291015625 415.05849609374997Q256.88818359375 414.68496093749997 255.84228515625 414.03749999999997ZM258.69775390625 413.32363281249997Q259.66064453125 414.12050781249997 261.37060546875 414.12050781249997Q263.06396484375 414.12050781249997 264.5 412.86708984374997Q265.93603515625 411.61367187499997 266.7578125 409.49697265624997Q267.57958984375 407.38027343749997 267.57958984375 405.05605468749997Q267.57958984375 403.19667968749997 266.8076171875 402.17568359374997Q266.03564453125 401.15468749999997 264.74072265625 401.15468749999997Q263.76123046875 401.15468749999997 262.6240234375 401.80214843749997Q261.48681640625 402.44960937499997 260.45751953125 403.46230468749997Z M285.90771484375 402.48281249999997Q285.90771484375 404.74062499999997 283.11865234375 406.33437499999997Q280.32958984375 407.92812499999997 275.63134765625 408.24355468749997L275.56494140625 409.45546874999997Q275.56494140625 411.56386718749997 276.453125 412.63466796874997Q277.34130859375 413.70546874999997 279.08447265625 413.70546874999997Q280.57861328125 413.70546874999997 281.84033203125 413.19912109374997Q283.10205078125 412.69277343749997 284.19775390625 412.04531249999997L284.67919921875 412.74257812499997Q283.15185546875 414.03749999999997 281.4501953125 414.73476562499997Q279.74853515625 415.43203124999997 278.22119140625 415.43203124999997Q275.53173828125 415.43203124999997 274.0791015625 413.92958984374997Q272.62646484375 412.42714843749997 272.62646484375 409.62148437499997Q272.62646484375 406.84902343749997 273.796875 404.45009765624997Q274.96728515625 402.05117187499997 277.04248046875 400.56533203124997Q279.11767578125 399.07949218749997 281.39208984375 399.07949218749997Q283.43408203125 399.07949218749997 284.6708984375 400.01748046874997Q285.90771484375 400.95546874999997 285.90771484375 402.48281249999997ZM275.76416015625 407.19765624999997Q279.05126953125 406.94863281249997 281.02685546875 405.65371093749997Q283.00244140625 404.35878906249997 283.00244140625 402.48281249999997Q283.00244140625 401.55312499999997 282.49609375 400.95546874999997Q281.98974609375 400.35781249999997 281.02685546875 400.35781249999997Q279.86474609375 400.35781249999997 278.76904296875 401.30410156249997Q277.67333984375 402.25039062499997 276.87646484375 403.84414062499997Q276.07958984375 405.43789062499997 275.76416015625 407.19765624999997Z M291.43603515625 413.93789062499997 294.04248046875 414.35292968749997 293.90966796875 415.09999999999997H288.48095703125L292.41552734375 392.65468749999997L290.27392578125 392.25624999999997L290.40673828125 391.50917968749997H295.37060546875Z M300.05224609375 409.45546874999997Q300.05224609375 411.69667968749997 300.923828125 412.88369140624997Q301.79541015625 414.07070312499997 303.35595703125 414.07070312499997Q304.86669921875 414.07070312499997 306.236328125 412.85878906249997Q307.60595703125 411.64687499999997 308.40283203125 409.54677734374997Q309.19970703125 407.44667968749997 309.19970703125 405.03945312499997Q309.19970703125 402.74843749999997 308.328125 401.56142578124997Q307.45654296875 400.37441406249997 305.82958984375 400.37441406249997Q304.31884765625 400.37441406249997 302.9658203125 401.58632812499997Q301.61279296875 402.79824218749997 300.83251953125 404.89833984374997Q300.05224609375 406.99843749999997 300.05224609375 409.45546874999997ZM303.20654296875 415.43203124999997Q300.45068359375 415.43203124999997 298.79052734375 413.66396484374997Q297.13037109375 411.89589843749997 297.13037109375 408.89101562499997Q297.13037109375 406.21816406249997 298.27587890625 403.94374999999997Q299.42138671875 401.66933593749997 301.455078125 400.37441406249997Q303.48876953125 399.07949218749997 306.02880859375 399.07949218749997Q308.78466796875 399.07949218749997 310.44482421875 400.84755859374997Q312.10498046875 402.61562499999997 312.10498046875 405.62050781249997Q312.10498046875 408.29335937499997 310.95947265625 410.56777343749997Q309.81396484375 412.84218749999997 307.7802734375 414.13710937499997Q305.74658203125 415.43203124999997 303.20654296875 415.43203124999997Z M325.58544921875 401.70253906249997Q325.58544921875 401.08828124999997 325.23681640625 400.72304687499997Q324.88818359375 400.35781249999997 324.48974609375 400.24160156249997L324.62255859375 399.49453124999997H327.77685546875Q328.20849609375 399.87636718749997 328.20849609375 400.54042968749997Q328.20849609375 402.00136718749997 326.83056640625 404.19277343749997L319.80810546875 415.43203124999997H318.59619140625L315.45849609375 400.65664062499997L313.58251953125 400.24160156249997L313.73193359375 399.49453124999997H317.98193359375L320.38916015625 411.64687499999997L324.52294921875 404.90664062499997Q325.58544921875 403.18007812499997 325.58544921875 401.70253906249997Z M342.53564453125 402.48281249999997Q342.53564453125 404.74062499999997 339.74658203125 406.33437499999997Q336.95751953125 407.92812499999997 332.25927734375 408.24355468749997L332.19287109375 409.45546874999997Q332.19287109375 411.56386718749997 333.0810546875 412.63466796874997Q333.96923828125 413.70546874999997 335.71240234375 413.70546874999997Q337.20654296875 413.70546874999997 338.46826171875 413.19912109374997Q339.72998046875 412.69277343749997 340.82568359375 412.04531249999997L341.30712890625 412.74257812499997Q339.77978515625 414.03749999999997 338.078125 414.73476562499997Q336.37646484375 415.43203124999997 334.84912109375 415.43203124999997Q332.15966796875 415.43203124999997 330.70703125 413.92958984374997Q329.25439453125 412.42714843749997 329.25439453125 409.62148437499997Q329.25439453125 406.84902343749997 330.4248046875 404.45009765624997Q331.59521484375 402.05117187499997 333.67041015625 400.56533203124997Q335.74560546875 399.07949218749997 338.02001953125 399.07949218749997Q340.06201171875 399.07949218749997 341.298828125 400.01748046874997Q342.53564453125 400.95546874999997 342.53564453125 402.48281249999997ZM332.39208984375 407.19765624999997Q335.67919921875 406.94863281249997 337.65478515625 405.65371093749997Q339.63037109375 404.35878906249997 339.63037109375 402.48281249999997Q339.63037109375 401.55312499999997 339.1240234375 400.95546874999997Q338.61767578125 400.35781249999997 337.65478515625 400.35781249999997Q336.49267578125 400.35781249999997 335.39697265625 401.30410156249997Q334.30126953125 402.25039062499997 333.50439453125 403.84414062499997Q332.70751953125 405.43789062499997 332.39208984375 407.19765624999997Z M356.29833984375 399.47792968749997Q356.36474609375 398.68105468749997 357.42724609375 392.65468749999997L354.87060546875 392.25624999999997L355.00341796875 391.50917968749997H360.38232421875L356.39794921875 413.93789062499997L358.27392578125 414.35292968749997L358.14111328125 415.09999999999997H353.40966796875L353.89111328125 412.51015624999997Q351.08544921875 415.44863281249997 348.76123046875 415.44863281249997Q346.71923828125 415.44863281249997 345.52392578125 413.91298828124997Q344.32861328125 412.37734374999997 344.32861328125 409.83730468749997Q344.32861328125 406.99843749999997 345.548828125 404.49990234374997Q346.76904296875 402.00136718749997 348.89404296875 400.54873046874997Q351.01904296875 399.09609374999997 353.55908203125 399.09609374999997Q355.11962890625 399.09609374999997 356.29833984375 399.47792968749997ZM355.91650390625 401.20449218749997Q355.33544921875 400.82265624999997 354.72119140625 400.60683593749997Q354.10693359375 400.39101562499997 353.22705078125 400.39101562499997Q351.66650390625 400.39101562499997 350.30517578125 401.61953124999997Q348.94384765625 402.84804687499997 348.11376953125 405.00624999999997Q347.28369140625 407.16445312499997 347.28369140625 409.47207031249997Q347.28369140625 411.24843749999997 348.01416015625 412.31093749999997Q348.74462890625 413.37343749999997 349.98974609375 413.37343749999997Q350.91943359375 413.37343749999997 352.0068359375 412.76748046874997Q353.09423828125 412.16152343749997 354.10693359375 411.06582031249997Z M388.22314453125 394.14882812499997 385.30126953125 393.71718749999997 385.46728515625 392.83730468749997H393.05419921875L392.88818359375 393.71718749999997L389.96630859375 394.14882812499997L386.26416015625 415.09999999999997H384.65380859375L376.66845703125 395.07851562499997L373.36474609375 413.77187499999997L376.28662109375 414.22011718749997L376.12060546875 415.09999999999997H368.55029296875L368.71630859375 414.22011718749997L371.62158203125 413.77187499999997L375.09130859375 394.14882812499997L372.30224609375 393.71718749999997L372.46826171875 392.83730468749997H378.90966796875L385.53369140625 409.52187499999997Z M395.41162109375 409.45546874999997Q395.41162109375 411.69667968749997 396.283203125 412.88369140624997Q397.15478515625 414.07070312499997 398.71533203125 414.07070312499997Q400.22607421875 414.07070312499997 401.595703125 412.85878906249997Q402.96533203125 411.64687499999997 403.76220703125 409.54677734374997Q404.55908203125 407.44667968749997 404.55908203125 405.03945312499997Q404.55908203125 402.74843749999997 403.6875 401.56142578124997Q402.81591796875 400.37441406249997 401.18896484375 400.37441406249997Q399.67822265625 400.37441406249997 398.3251953125 401.58632812499997Q396.97216796875 402.79824218749997 396.19189453125 404.89833984374997Q395.41162109375 406.99843749999997 395.41162109375 409.45546874999997ZM398.56591796875 415.43203124999997Q395.81005859375 415.43203124999997 394.14990234375 413.66396484374997Q392.48974609375 411.89589843749997 392.48974609375 408.89101562499997Q392.48974609375 406.21816406249997 393.63525390625 403.94374999999997Q394.78076171875 401.66933593749997 396.814453125 400.37441406249997Q398.84814453125 399.07949218749997 401.38818359375 399.07949218749997Q404.14404296875 399.07949218749997 405.80419921875 400.84755859374997Q407.46435546875 402.61562499999997 407.46435546875 405.62050781249997Q407.46435546875 408.29335937499997 406.31884765625 410.56777343749997Q405.17333984375 412.84218749999997 403.1396484375 414.13710937499997Q401.10595703125 415.43203124999997 398.56591796875 415.43203124999997Z M412.92626953125 411.89589843749997Q412.92626953125 412.64296874999997 413.32470703125 413.10781249999997Q413.72314453125 413.57265624999997 414.58642578125 413.57265624999997Q415.83154296875 413.57265624999997 417.27587890625 412.53505859374997Q418.72021484375 411.49746093749997 419.64990234375 409.98671874999997L421.49267578125 399.49453124999997H424.24853515625L421.70849609375 413.93789062499997L423.66748046875 414.35292968749997L423.53466796875 415.09999999999997H418.91943359375L419.36767578125 411.89589843749997Q417.98974609375 413.67226562499997 416.49560546875 414.58535156249997Q415.00146484375 415.49843749999997 413.54052734375 415.49843749999997Q411.86376953125 415.49843749999997 411.01708984375 414.59365234374997Q410.17041015625 413.68886718749997 410.17041015625 411.99550781249997Q410.17041015625 411.74648437499997 410.26171875 411.10732421874997Q410.35302734375 410.46816406249997 412.04638671875 400.64003906249997L410.20361328125 400.24160156249997L410.33642578125 399.49453124999997H415.00146484375L413.30810546875 409.14003906249997Q412.92626953125 411.23183593749997 412.92626953125 411.89589843749997Z M438.01123046875 402.68203124999997Q438.01123046875 401.93496093749997 437.61279296875 401.47011718749997Q437.21435546875 401.00527343749997 436.35107421875 401.00527343749997Q435.12255859375 401.00527343749997 433.669921875 402.05117187499997Q432.21728515625 403.09707031249997 431.27099609375 404.64101562499997L429.44482421875 415.09999999999997H426.68896484375L429.22900390625 400.64003906249997L427.27001953125 400.22499999999997L427.40283203125 399.47792968749997H432.01806640625L431.56982421875 402.66542968749997Q432.96435546875 400.87246093749997 434.45849609375 399.97597656249997Q435.95263671875 399.07949218749997 437.39697265625 399.07949218749997Q439.07373046875 399.07949218749997 439.92041015625 399.98427734374997Q440.76708984375 400.88906249999997 440.76708984375 402.58242187499997Q440.76708984375 402.81484374999997 440.70068359375 403.29628906249997Q440.63427734375 403.77773437499997 438.89111328125 413.95449218749997L441.06591796875 414.35292968749997L440.93310546875 415.09999999999997H435.93603515625L437.62939453125 405.43789062499997Q438.01123046875 403.32949218749997 438.01123046875 402.68203124999997Z M446.41162109375 409.45546874999997Q446.41162109375 411.69667968749997 447.283203125 412.88369140624997Q448.15478515625 414.07070312499997 449.71533203125 414.07070312499997Q451.22607421875 414.07070312499997 452.595703125 412.85878906249997Q453.96533203125 411.64687499999997 454.76220703125 409.54677734374997Q455.55908203125 407.44667968749997 455.55908203125 405.03945312499997Q455.55908203125 402.74843749999997 454.6875 401.56142578124997Q453.81591796875 400.37441406249997 452.18896484375 400.37441406249997Q450.67822265625 400.37441406249997 449.3251953125 401.58632812499997Q447.97216796875 402.79824218749997 447.19189453125 404.89833984374997Q446.41162109375 406.99843749999997 446.41162109375 409.45546874999997ZM449.56591796875 415.43203124999997Q446.81005859375 415.43203124999997 445.14990234375 413.66396484374997Q443.48974609375 411.89589843749997 443.48974609375 408.89101562499997Q443.48974609375 406.21816406249997 444.63525390625 403.94374999999997Q445.78076171875 401.66933593749997 447.814453125 400.37441406249997Q449.84814453125 399.07949218749997 452.38818359375 399.07949218749997Q455.14404296875 399.07949218749997 456.80419921875 400.84755859374997Q458.46435546875 402.61562499999997 458.46435546875 405.62050781249997Q458.46435546875 408.29335937499997 457.31884765625 410.56777343749997Q456.17333984375 412.84218749999997 454.1396484375 414.13710937499997Q452.10595703125 415.43203124999997 449.56591796875 415.43203124999997Z M463.92626953125 411.89589843749997Q463.92626953125 412.64296874999997 464.32470703125 413.10781249999997Q464.72314453125 413.57265624999997 465.58642578125 413.57265624999997Q466.83154296875 413.57265624999997 468.27587890625 412.53505859374997Q469.72021484375 411.49746093749997 470.64990234375 409.98671874999997L472.49267578125 399.49453124999997H475.24853515625L472.70849609375 413.93789062499997L474.66748046875 414.35292968749997L474.53466796875 415.09999999999997H469.91943359375L470.36767578125 411.89589843749997Q468.98974609375 413.67226562499997 467.49560546875 414.58535156249997Q466.00146484375 415.49843749999997 464.54052734375 415.49843749999997Q462.86376953125 415.49843749999997 462.01708984375 414.59365234374997Q461.17041015625 413.68886718749997 461.17041015625 411.99550781249997Q461.17041015625 411.74648437499997 461.26171875 411.10732421874997Q461.35302734375 410.46816406249997 463.04638671875 400.64003906249997L461.20361328125 400.24160156249997L461.33642578125 399.49453124999997H466.00146484375L464.30810546875 409.14003906249997Q463.92626953125 411.23183593749997 463.92626953125 411.89589843749997Z M488.49658203125 399.07949218749997Q489.32666015625 399.07949218749997 489.80810546875 399.21230468749997L489.07763671875 403.29628906249997H488.36376953125L487.73291015625 401.18789062499997Q486.40478515625 401.18789062499997 484.9853515625 402.20058593749997Q483.56591796875 403.21328124999997 482.38720703125 404.87343749999997L480.61083984375 415.09999999999997H477.85498046875L480.39501953125 400.65664062499997L478.43603515625 400.24160156249997L478.56884765625 399.49453124999997H483.16748046875L482.65283203125 403.01406249999997Q483.89794921875 401.13808593749997 485.43359375 400.10878906249997Q486.96923828125 399.07949218749997 488.49658203125 399.07949218749997Z M501.19677734375 410.51796874999997Q501.19677734375 413.02480468749997 499.60302734375 414.22841796874997Q498.00927734375 415.43203124999997 494.77197265625 415.43203124999997Q492.48095703125 415.43203124999997 490.12353515625 414.40273437499997L490.80419921875 410.65078124999997H491.55126953125L491.83349609375 412.92519531249997Q492.26513671875 413.39003906249997 493.0537109375 413.75527343749997Q493.84228515625 414.12050781249997 494.83837890625 414.12050781249997Q498.47412109375 414.12050781249997 498.47412109375 411.14882812499997Q498.47412109375 410.16933593749997 497.7021484375 409.40566406249997Q496.93017578125 408.64199218749997 495.18701171875 407.79531249999997Q493.51025390625 406.98183593749997 492.69677734375 405.99404296874997Q491.88330078125 405.00624999999997 491.88330078125 403.67812499999997Q491.88330078125 401.48671874999997 493.36083984375 400.28310546874997Q494.83837890625 399.07949218749997 497.46142578125 399.07949218749997Q499.33740234375 399.07949218749997 501.91064453125 399.66054687499997L501.29638671875 403.13027343749997H500.51611328125L500.28369140625 401.33730468749997Q499.23779296875 400.40761718749997 497.52783203125 400.40761718749997Q496.16650390625 400.40761718749997 495.35302734375 401.03017578124997Q494.53955078125 401.65273437499997 494.53955078125 402.96425781249997Q494.53955078125 403.86074218749997 495.23681640625 404.54140624999997Q495.93408203125 405.22207031249997 497.87646484375 406.21816406249997Q499.60302734375 407.11464843749997 500.39990234375 408.14394531249997Q501.19677734375 409.17324218749997 501.19677734375 410.51796874999997Z"/>
  <path fill="#888888" d="M125.374 471.40399999999994Q123.78999999999999 471.40399999999994 123.142 470.1619999999999Q122.49399999999999 468.91999999999996 122.49399999999999 467.26399999999995Q122.49399999999999 465.78799999999995 122.90799999999999 464.34799999999996Q123.32199999999999 462.90799999999996 123.898 462.152Q122.92599999999999 463.304 121.48599999999999 464.78Q120.04599999999999 466.256 118.31799999999998 467.62399999999997Q116.58999999999999 468.99199999999996 114.75399999999999 469.89199999999994Q112.91799999999999 470.792 111.118 470.792Q108.74199999999999 470.792 107.57199999999999 469.28Q106.40199999999999 467.768 106.40199999999999 465.14Q106.40199999999999 463.08799999999997 107.10399999999998 460.72999999999996Q107.806 458.37199999999996 109.17399999999999 455.924Q109.82199999999999 454.736 110.63199999999999 453.566Q111.442 452.39599999999996 112.37799999999999 451.352Q111.26199999999999 450.81199999999995 110.21799999999999 450.14599999999996Q109.17399999999999 449.47999999999996 108.52599999999998 448.544Q107.87799999999999 447.60799999999995 107.87799999999999 446.31199999999995Q107.87799999999999 445.628 108.184 445.06999999999994Q108.49 444.51199999999994 108.85 444.51199999999994Q109.17399999999999 444.51199999999994 109.17399999999999 444.90799999999996Q109.17399999999999 445.15999999999997 109.02999999999999 445.448Q108.85 445.91599999999994 108.85 446.31199999999995Q108.85 447.284 109.53399999999999 448.13Q110.21799999999999 448.97599999999994 111.19 449.58799999999997Q112.16199999999999 450.2 112.99 450.55999999999995Q115.29399999999998 448.03999999999996 118.04799999999999 445.89799999999997Q120.80199999999999 443.756 123.97 442.46Q127.13799999999999 441.164 130.63 441.164Q133.546 441.164 135.202 442.442Q136.858 443.71999999999997 136.858 445.736Q136.858 447.53599999999994 135.832 448.81399999999996Q134.80599999999998 450.092 133.14999999999998 450.938Q131.494 451.784 129.56799999999998 452.27Q127.642 452.756 125.77 452.95399999999995Q123.898 453.152 122.49399999999999 453.152Q120.442 453.152 118.51599999999999 452.9Q116.58999999999999 452.64799999999997 114.68199999999999 452.10799999999995Q113.746 453.43999999999994 112.648 455.1859999999999Q111.54999999999998 456.93199999999996 110.55999999999999 458.85799999999995Q109.57 460.784 108.94 462.674Q108.30999999999999 464.56399999999996 108.30999999999999 466.18399999999997Q108.30999999999999 467.948 109.13799999999999 468.83Q109.966 469.712 111.36999999999999 469.712Q113.06199999999998 469.712 114.95199999999998 468.686Q116.84199999999998 467.65999999999997 118.74999999999999 466.00399999999996Q120.65799999999999 464.34799999999996 122.386 462.404Q124.11399999999999 460.46 125.482 458.55199999999996Q126.85 456.64399999999995 127.642 455.16799999999995Q128.254 454.01599999999996 128.82999999999998 453.53Q129.40599999999998 453.044 129.802 453.044Q130.19799999999998 453.044 130.414 453.34999999999997Q130.63 453.65599999999995 130.63 454.15999999999997Q130.63 455.16799999999995 129.73 456.176Q128.506 457.58 127.35399999999998 459.578Q126.20199999999998 461.57599999999996 125.48199999999999 463.75399999999996Q124.76199999999999 465.93199999999996 124.76199999999999 467.84Q124.76199999999999 469.17199999999997 125.17599999999999 469.74799999999993Q125.58999999999999 470.32399999999996 126.27399999999999 470.32399999999996Q127.31799999999998 470.32399999999996 128.38 469.62199999999996Q129.44199999999998 468.91999999999996 130.414 467.73199999999997Q131.386 466.544 132.214 465.086Q133.04199999999997 463.628 133.654 462.152Q133.834 462.152 133.95999999999998 462.188Q134.08599999999998 462.224 134.08599999999998 462.47599999999994Q133.474 464.02399999999994 132.628 465.60799999999995Q131.78199999999998 467.19199999999995 130.702 468.506Q129.62199999999999 469.82 128.29 470.61199999999997Q126.95799999999998 471.40399999999994 125.374 471.40399999999994ZM122.16999999999999 452.28799999999995Q123.60999999999999 452.28799999999995 125.374 452.126Q127.13799999999999 451.96399999999994 128.884 451.5319999999999Q130.63 451.09999999999997 132.106 450.308Q133.582 449.51599999999996 134.48199999999997 448.292Q135.38199999999998 447.068 135.38199999999998 445.304Q135.38199999999998 443.71999999999997 134.06799999999998 442.89199999999994Q132.754 442.06399999999996 130.738 442.06399999999996Q127.38999999999999 442.06399999999996 124.636 443.37799999999993Q121.88199999999999 444.69199999999995 119.59599999999999 446.8159999999999Q117.30999999999999 448.93999999999994 115.258 451.388Q116.84199999999998 451.856 118.51599999999999 452.072Q120.18999999999998 452.28799999999995 122.16999999999999 452.28799999999995Z M130.198 469.388Q131.494 466.76 132.68200000000002 464.186Q133.87 461.61199999999997 135.13 459.272Q135.85 457.97599999999994 136.35399999999998 457.45399999999995Q136.858 456.93199999999996 137.686 456.93199999999996Q137.974 456.93199999999996 138.298 457.02199999999993Q138.622 457.11199999999997 138.946 457.11199999999997Q139.162 457.11199999999997 139.27 457.07599999999996Q138.766 457.364 137.95600000000002 458.49799999999993Q137.14600000000002 459.63199999999995 136.318 461.10799999999995Q135.49 462.58399999999995 134.842 463.87999999999994Q135.526 463.05199999999996 136.282 462.22399999999993Q137.038 461.39599999999996 137.938 460.64Q138.802 459.88399999999996 140.00799999999998 459.07399999999996Q141.214 458.26399999999995 142.36599999999999 457.72399999999993Q143.518 457.18399999999997 144.202 457.18399999999997Q144.454 457.18399999999997 144.562 457.21999999999997Q144.562 457.21999999999997 144.166 457.92199999999997Q143.77 458.62399999999997 143.176 459.7579999999999Q142.582 460.89199999999994 141.97 462.16999999999996Q141.358 463.448 140.872 464.61799999999994Q140.386 465.78799999999995 140.242 466.58Q140.13400000000001 467.04799999999994 140.13400000000001 467.44399999999996Q140.13400000000001 468.02 140.35000000000002 468.19999999999993Q140.566 468.37999999999994 140.818 468.37999999999994Q141.502 468.37999999999994 142.222 467.7679999999999Q142.942 467.15599999999995 143.608 466.202Q144.274 465.248 144.85 464.168Q145.426 463.08799999999997 145.822 462.152Q146.254 462.152 146.254 462.47599999999994Q145.858 463.448 145.264 464.61799999999994Q144.67 465.78799999999995 143.932 466.832Q143.194 467.876 142.29399999999998 468.55999999999995Q141.394 469.24399999999997 140.35 469.24399999999997Q139.63 469.24399999999997 138.856 468.74Q138.082 468.236 138.082 466.86799999999994Q138.082 466.472 138.154 466.02199999999993Q138.226 465.57199999999995 138.406 465.032Q138.694 464.31199999999995 139.08999999999997 463.4839999999999Q139.486 462.65599999999995 140.386 461.21599999999995Q140.638 460.82 140.692 460.604Q140.746 460.388 140.746 460.24399999999997Q140.746 459.81199999999995 140.35 459.81199999999995Q140.026 459.81199999999995 139.39600000000002 460.17199999999997Q138.766 460.532 137.83 461.43199999999996Q136.93 462.296 135.688 463.88Q134.446 465.46399999999994 132.826 468.55999999999995Q132.574 469.02799999999996 132.268 469.06399999999996Q131.962 469.09999999999997 131.422 469.13599999999997Q131.062 469.17199999999997 130.738 469.18999999999994Q130.414 469.20799999999997 130.198 469.388Z M153.274 450.092Q152.806 450.77599999999995 152.23000000000002 451.81999999999994Q151.654 452.864 151.168 453.836Q150.68200000000002 454.808 150.43 455.31199999999995H153.74200000000002Q153.74200000000002 455.45599999999996 153.616 455.78Q153.49 456.104 153.13 456.248H149.99800000000002Q149.566 457.21999999999997 149.008 458.58799999999997Q148.45000000000002 459.95599999999996 147.928 461.43199999999996Q147.406 462.90799999999996 147.06400000000002 464.1859999999999Q146.722 465.46399999999994 146.722 466.256Q146.722 467.33599999999996 147.01 467.85799999999995Q147.298 468.37999999999994 148.054 468.37999999999994Q149.026 468.37999999999994 149.926 467.42599999999993Q150.826 466.472 151.636 465.032Q152.446 463.592 153.058 462.152Q153.49 462.152 153.49 462.47599999999994Q153.094 463.448 152.518 464.59999999999997Q151.942 465.75199999999995 151.204 466.81399999999996Q150.466 467.876 149.548 468.542Q148.63 469.20799999999997 147.514 469.20799999999997Q146.002 469.20799999999997 145.462 468.36199999999997Q144.922 467.51599999999996 144.922 466.18399999999997Q144.922 465.212 145.28199999999998 463.82599999999996Q145.642 462.43999999999994 146.164 460.96399999999994Q146.686 459.48799999999994 147.19 458.2099999999999Q147.69400000000002 456.93199999999996 147.982 456.248H145.678Q145.678 455.96 145.93 455.63599999999997Q146.18200000000002 455.31199999999995 146.47 455.31199999999995H148.37800000000001Q148.666 454.736 149.04399999999998 453.87199999999996Q149.422 453.008 150.07 451.96399999999994Q150.61 451.09999999999997 151.45600000000002 450.596Q152.30200000000002 450.092 153.274 450.092Z M154.066 469.09999999999997Q152.734 469.09999999999997 152.19400000000002 468.32599999999996Q151.654 467.55199999999996 151.654 466.544Q151.654 466.00399999999996 151.78 465.44599999999997Q151.906 464.888 152.08599999999998 464.41999999999996L154.498 458.26399999999995Q154.606 457.97599999999994 154.606 457.76Q154.606 457.4 154.426 457.13Q154.246 456.85999999999996 154.174 456.75199999999995L156.154 456.67999999999995Q156.694 456.64399999999995 156.928 456.8059999999999Q157.162 456.96799999999996 157.162 457.18399999999997Q157.162 457.4 156.91 457.97599999999994Q156.55 458.84 155.938 460.13599999999997Q155.326 461.43199999999996 154.732 462.79999999999995Q154.138 464.16799999999995 153.724 465.356Q153.31 466.544 153.31 467.19199999999995Q153.31 467.65999999999997 153.54399999999998 467.984Q153.778 468.308 154.35399999999998 468.308Q155.10999999999999 468.308 155.84799999999998 467.71399999999994Q156.58599999999998 467.11999999999995 157.23399999999998 466.18399999999997Q157.882 465.248 158.44 464.168Q158.998 463.08799999999997 159.394 462.152Q159.826 462.152 159.826 462.47599999999994Q159.466 463.376 158.89 464.52799999999996Q158.314 465.67999999999995 157.576 466.70599999999996Q156.838 467.73199999999997 155.956 468.41599999999994Q155.07399999999998 469.09999999999997 154.066 469.09999999999997ZM157.26999999999998 454.448Q156.802 454.448 156.45999999999998 454.08799999999997Q156.118 453.72799999999995 156.118 453.224Q156.118 452.61199999999997 156.622 452.126Q157.126 451.64 157.738 451.64Q158.242 451.64 158.60199999999998 451.96399999999994Q158.962 452.28799999999995 158.962 452.792Q158.962 453.43999999999994 158.458 453.94399999999996Q157.954 454.448 157.26999999999998 454.448Z M167.638 469.09999999999997Q166.41400000000002 469.09999999999997 165.83800000000002 468.27199999999993Q165.262 467.44399999999996 165.262 466.328Q165.262 466.00399999999996 165.298 465.662Q165.334 465.32 165.442 464.96Q164.93800000000002 465.75199999999995 164.27200000000002 466.70599999999996Q163.60600000000002 467.65999999999997 162.76000000000002 468.36199999999997Q161.91400000000002 469.06399999999996 160.87 469.06399999999996Q160.40200000000002 469.06399999999996 159.808 468.84799999999996Q159.214 468.63199999999995 158.764 468.02Q158.31400000000002 467.40799999999996 158.31400000000002 466.21999999999997Q158.31400000000002 464.67199999999997 158.99800000000002 462.94399999999996Q159.68200000000002 461.21599999999995 160.87 459.6859999999999Q162.05800000000002 458.15599999999995 163.57000000000002 457.202Q165.08200000000002 456.248 166.702 456.248Q167.99800000000002 456.248 169.15 456.93199999999996Q169.69 455.924 170.30200000000002 454.68199999999996Q170.91400000000002 453.43999999999994 171.526 452.21599999999995Q172.138 450.99199999999996 172.606 449.96599999999995Q173.074 448.93999999999994 173.32600000000002 448.4Q173.866 447.14 174.35200000000003 446.798Q174.83800000000002 446.45599999999996 175.52200000000002 446.45599999999996Q175.918 446.45599999999996 176.404 446.54599999999994Q176.89000000000001 446.63599999999997 177.358 446.59999999999997Q177.178 446.78 176.53 447.788Q175.882 448.796 174.94600000000003 450.39799999999997Q174.01000000000002 451.99999999999994 172.94800000000004 453.90799999999996Q171.88600000000002 455.816 170.86 457.81399999999996Q169.834 459.81199999999995 168.97 461.64799999999997Q168.106 463.484 167.602 464.888Q167.098 466.292 167.098 467.01199999999994Q167.098 467.47999999999996 167.31400000000002 467.822Q167.53 468.164 168.03400000000002 468.164Q168.71800000000002 468.164 169.43800000000002 467.48Q170.15800000000002 466.796 170.824 465.77Q171.49 464.74399999999997 172.012 463.75399999999996Q172.53400000000002 462.76399999999995 172.786 462.152Q173.21800000000002 462.152 173.21800000000002 462.47599999999994Q172.894 463.23199999999997 172.354 464.34799999999996Q171.81400000000002 465.46399999999994 171.09400000000002 466.544Q170.37400000000002 467.62399999999997 169.49200000000002 468.36199999999997Q168.61 469.09999999999997 167.638 469.09999999999997ZM161.122 468.02Q161.626 468.02 162.382 467.462Q163.138 466.90399999999994 164.002 465.67999999999995Q165.01000000000002 464.23999999999995 166.306 462.0799999999999Q167.602 459.91999999999996 168.86200000000002 457.508Q168.61 457.292 168.322 457.18399999999997Q168.03400000000002 457.07599999999996 167.53 457.07599999999996Q166.702 457.07599999999996 165.712 457.77799999999996Q164.722 458.47999999999996 163.73200000000003 459.596Q162.74200000000002 460.712 161.93200000000002 462.008Q161.122 463.304 160.63600000000002 464.51Q160.15 465.71599999999995 160.15 466.58Q160.15 468.02 161.122 468.02Z M174.946 469.09999999999997Q173.47 469.09999999999997 172.768 468.03799999999995Q172.066 466.97599999999994 172.066 465.46399999999994Q172.066 464.05999999999995 172.606 462.54799999999994Q173.18200000000002 460.89199999999994 174.20800000000003 459.52399999999994Q175.234 458.15599999999995 176.476 457.30999999999995Q177.71800000000002 456.46399999999994 178.942 456.46399999999994Q180.418 456.46399999999994 181.12 457.472Q181.822 458.47999999999996 181.822 460.02799999999996Q181.822 461.10799999999995 181.462 462.29599999999994Q181.102 463.484 180.49 464.63599999999997Q180.958 465.104 181.822 465.104Q182.83 465.104 183.55 464.456Q184.27 463.808 184.954 462.152Q185.386 462.152 185.386 462.47599999999994Q184.702 464.13199999999995 183.82 464.90599999999995Q182.93800000000002 465.67999999999995 181.57 465.64399999999995Q180.74200000000002 465.64399999999995 180.202 465.176Q179.19400000000002 466.832 177.808 467.966Q176.422 469.09999999999997 174.946 469.09999999999997ZM175.45000000000002 468.308Q176.27800000000002 468.308 177.106 467.606Q177.934 466.90399999999994 178.618 466.00399999999996Q179.302 465.104 179.59 464.45599999999996Q179.014 463.412 178.924 462.89Q178.834 462.36799999999994 178.834 462.116Q178.834 461.43199999999996 179.19400000000002 461.072Q179.554 460.712 179.91400000000002 460.712Q180.418 460.712 180.77800000000002 461.14399999999995Q180.85 460.748 180.886 460.40599999999995Q180.922 460.06399999999996 180.922 459.73999999999995Q180.922 458.804 180.57999999999998 458.21Q180.238 457.616 179.518 457.616Q178.762 457.616 177.934 458.264Q177.106 458.912 176.368 459.99199999999996Q175.63 461.07199999999995 175.09 462.40399999999994Q174.622 463.52 174.37 464.51Q174.118 465.49999999999994 174.118 466.328Q174.118 467.22799999999995 174.442 467.768Q174.76600000000002 468.308 175.45000000000002 468.308Z M192.406 450.092Q191.93800000000002 450.77599999999995 191.36200000000002 451.81999999999994Q190.786 452.864 190.3 453.836Q189.81400000000002 454.808 189.562 455.31199999999995H192.87400000000002Q192.87400000000002 455.45599999999996 192.74800000000002 455.78Q192.622 456.104 192.262 456.248H189.13000000000002Q188.698 457.21999999999997 188.14000000000001 458.58799999999997Q187.58200000000002 459.95599999999996 187.06 461.43199999999996Q186.538 462.90799999999996 186.19600000000003 464.1859999999999Q185.854 465.46399999999994 185.854 466.256Q185.854 467.33599999999996 186.142 467.85799999999995Q186.43 468.37999999999994 187.186 468.37999999999994Q188.15800000000002 468.37999999999994 189.058 467.42599999999993Q189.958 466.472 190.768 465.032Q191.578 463.592 192.19 462.152Q192.622 462.152 192.622 462.47599999999994Q192.226 463.448 191.65 464.59999999999997Q191.074 465.75199999999995 190.336 466.81399999999996Q189.598 467.876 188.68 468.542Q187.762 469.20799999999997 186.64600000000002 469.20799999999997Q185.13400000000001 469.20799999999997 184.594 468.36199999999997Q184.054 467.51599999999996 184.054 466.18399999999997Q184.054 465.212 184.414 463.82599999999996Q184.774 462.43999999999994 185.296 460.96399999999994Q185.818 459.48799999999994 186.322 458.2099999999999Q186.82600000000002 456.93199999999996 187.114 456.248H184.81Q184.81 455.96 185.062 455.63599999999997Q185.31400000000002 455.31199999999995 185.602 455.31199999999995H187.51000000000002Q187.798 454.736 188.176 453.87199999999996Q188.554 453.008 189.202 451.96399999999994Q189.74200000000002 451.09999999999997 190.58800000000002 450.596Q191.43400000000003 450.092 192.406 450.092Z M194.782 469.24399999999997Q193.45 469.24399999999997 192.38799999999998 468.38Q191.326 467.51599999999996 191.326 465.75199999999995Q191.326 464.27599999999995 191.99200000000002 462.61999999999995Q192.65800000000002 460.96399999999994 193.75600000000003 459.506Q194.854 458.04799999999994 196.204 457.13Q197.554 456.212 198.922 456.212Q199.606 456.212 200.254 456.60799999999995Q200.902 457.00399999999996 200.902 457.97599999999994Q200.902 458.876 200.218 459.95599999999996Q199.534 461.03599999999994 198.274 461.972Q197.734 462.36799999999994 196.906 462.72799999999995Q196.078 463.08799999999997 195.25 463.322Q194.422 463.556 193.882 463.556Q193.702 463.98799999999994 193.54000000000002 464.70799999999997Q193.37800000000001 465.42799999999994 193.37800000000001 466.18399999999997Q193.37800000000001 467.08399999999995 193.738 467.804Q194.098 468.52399999999994 195.07 468.52399999999994Q196.258 468.52399999999994 197.284 467.8399999999999Q198.31 467.15599999999995 199.12 466.11199999999997Q199.93 465.068 200.506 463.98799999999994Q201.082 462.90799999999996 201.406 462.152Q201.838 462.152 201.838 462.47599999999994Q201.37 463.484 200.776 464.67199999999997Q200.18200000000002 465.85999999999996 199.372 466.88599999999997Q198.562 467.912 197.428 468.578Q196.294 469.24399999999997 194.782 469.24399999999997ZM194.13400000000001 462.90799999999996Q194.638 462.90799999999996 195.82600000000002 462.53Q197.014 462.152 197.986 461.32399999999996Q198.922 460.496 199.426 459.506Q199.93 458.51599999999996 199.93 457.832Q199.93 457.03999999999996 199.354 457.03999999999996Q198.922 457.03999999999996 198.166 457.616Q197.41 458.19199999999995 196.294 459.55999999999995Q195.61 460.424 194.998 461.43199999999996Q194.386 462.43999999999994 194.13400000000001 462.90799999999996Z M200.65 469.20799999999997Q200.434 469.20799999999997 200.32600000000002 469.09999999999997Q200.21800000000002 468.99199999999996 200.25400000000002 468.91999999999996Q202.702 464.52799999999996 205.15 460.154Q207.598 455.78 210.04600000000002 451.424Q208.642 452.68399999999997 207.202 453.818Q205.762 454.95199999999994 204.142 455.924Q204.07000000000002 455.96 203.92600000000002 455.96Q203.854 455.924 203.836 455.816Q203.818 455.70799999999997 203.818 455.63599999999997Q203.818 455.49199999999996 203.92600000000002 455.38399999999996Q205.40200000000002 454.268 207.238 452.846Q209.074 451.424 210.55 449.84Q210.946 449.40799999999996 211.34199999999998 449.048Q211.738 448.688 212.17000000000002 448.652L213.286 448.544Q213.358 448.508 213.412 448.52599999999995Q213.466 448.544 213.538 448.544V448.724L202.52200000000002 468.95599999999996Q202.27 469.09999999999997 201.622 469.11799999999994Q200.97400000000002 469.13599999999997 200.65 469.20799999999997Z M212.494 469.92799999999994Q212.278 469.784 212.35 469.568Q212.386 469.496 212.494 469.388Q216.526 466.508 219.406 462.764Q222.286 459.02 223.546 454.12399999999997Q223.762 453.296 223.852 452.71999999999997Q223.942 452.14399999999995 223.942 451.496Q223.942 450.45199999999994 223.49200000000002 449.71399999999994Q223.042 448.97599999999994 221.89 448.97599999999994Q220.594 448.97599999999994 219.37 449.8399999999999Q218.146 450.70399999999995 217.13799999999998 452.03599999999994Q216.13 453.36799999999994 215.536 454.82599999999996Q214.942 456.284 214.942 457.472Q214.942 458.33599999999996 215.392 458.9119999999999Q215.84199999999998 459.48799999999994 216.778 459.48799999999994Q218.038 459.48799999999994 218.99200000000002 458.64199999999994Q219.946 457.796 220.63 456.626Q221.314 455.45599999999996 221.746 454.484Q221.78199999999998 454.376 221.89 454.34Q222.07 454.268 222.286 454.376Q222.394 454.484 222.322 454.592Q221.962 455.56399999999996 221.296 456.75199999999995Q220.63 457.93999999999994 219.73 459.0559999999999Q218.82999999999998 460.17199999999997 217.75 460.87399999999997Q216.67 461.57599999999996 215.482 461.57599999999996Q214.186 461.57599999999996 213.538 460.76599999999996Q212.89 459.95599999999996 212.89 458.768Q212.89 457.544 213.48399999999998 456.12199999999996Q214.078 454.7 215.086 453.31399999999996Q216.094 451.928 217.35399999999998 450.77599999999995Q218.614 449.62399999999997 219.946 448.93999999999994Q221.278 448.256 222.538 448.256Q223.798 448.256 224.59 448.88599999999997Q225.382 449.51599999999996 225.76 450.506Q226.138 451.496 226.138 452.61199999999997Q226.138 454.628 225.256 456.662Q224.374 458.69599999999997 222.916 460.62199999999996Q221.458 462.54799999999994 219.676 464.294Q217.894 466.03999999999996 216.094 467.462Q214.294 468.88399999999996 212.746 469.92799999999994Q212.638 469.99999999999994 212.494 469.92799999999994Z M226.03 469.20799999999997Q225.814 469.20799999999997 225.70600000000002 469.09999999999997Q225.598 468.99199999999996 225.63400000000001 468.91999999999996Q228.082 464.52799999999996 230.53 460.154Q232.978 455.78 235.42600000000002 451.424Q234.022 452.68399999999997 232.582 453.818Q231.142 454.95199999999994 229.522 455.924Q229.45000000000002 455.96 229.306 455.96Q229.234 455.924 229.216 455.816Q229.198 455.70799999999997 229.198 455.63599999999997Q229.198 455.49199999999996 229.306 455.38399999999996Q230.782 454.268 232.618 452.846Q234.454 451.424 235.93 449.84Q236.326 449.40799999999996 236.72199999999998 449.048Q237.118 448.688 237.55 448.652L238.666 448.544Q238.738 448.508 238.792 448.52599999999995Q238.846 448.544 238.918 448.544V448.724L227.90200000000002 468.95599999999996Q227.65 469.09999999999997 227.002 469.11799999999994Q226.354 469.13599999999997 226.03 469.20799999999997Z M236.938 469.20799999999997Q236.72199999999998 469.20799999999997 236.614 469.09999999999997Q236.506 468.99199999999996 236.542 468.91999999999996Q238.98999999999998 464.52799999999996 241.438 460.154Q243.886 455.78 246.334 451.424Q244.93 452.68399999999997 243.49 453.818Q242.04999999999998 454.95199999999994 240.43 455.924Q240.358 455.96 240.214 455.96Q240.142 455.924 240.124 455.816Q240.106 455.70799999999997 240.106 455.63599999999997Q240.106 455.49199999999996 240.214 455.38399999999996Q241.69 454.268 243.526 452.846Q245.362 451.424 246.838 449.84Q247.23399999999998 449.40799999999996 247.63 449.048Q248.02599999999998 448.688 248.458 448.652L249.57399999999998 448.544Q249.646 448.508 249.7 448.52599999999995Q249.754 448.544 249.826 448.544V448.724L238.81 468.95599999999996Q238.558 469.09999999999997 237.91 469.11799999999994Q237.262 469.13599999999997 236.938 469.20799999999997Z M262.102 470.71999999999997Q259.042 470.71999999999997 257.02599999999995 469.76599999999996Q255.01 468.81199999999995 254.01999999999998 467.246Q253.02999999999997 465.67999999999995 253.02999999999997 463.91599999999994Q253.02999999999997 461.936 254.21799999999996 459.97399999999993Q255.40599999999998 458.01199999999994 257.76399999999995 456.5899999999999Q260.12199999999996 455.16799999999995 263.542 454.808Q263.038 454.12399999999997 262.786 453.24199999999996Q262.534 452.35999999999996 262.534 451.568Q262.57 449.65999999999997 263.614 448.202Q264.65799999999996 446.74399999999997 266.29599999999994 445.736Q267.93399999999997 444.72799999999995 269.806 444.20599999999996Q271.678 443.68399999999997 273.334 443.68399999999997Q274.342 443.68399999999997 275.38599999999997 443.95399999999995Q276.43 444.224 277.15 444.908Q277.87 445.592 277.87 446.852Q277.87 447.89599999999996 277.222 448.72399999999993Q276.57399999999996 449.55199999999996 275.638 449.55199999999996Q274.954 449.55199999999996 274.45 449.048Q273.94599999999997 448.544 273.94599999999997 447.89599999999996Q273.94599999999997 447.14 274.432 446.654Q274.918 446.16799999999995 275.638 446.16799999999995Q275.962 446.16799999999995 276.376 446.38399999999996Q276.78999999999996 446.59999999999997 276.89799999999997 446.816Q276.93399999999997 446.67199999999997 276.93399999999997 446.41999999999996Q276.93399999999997 445.448 276.14199999999994 445.05199999999996Q275.34999999999997 444.65599999999995 274.45 444.65599999999995Q273.01 444.65599999999995 271.102 445.35799999999995Q269.19399999999996 446.05999999999995 267.394 447.64399999999995Q266.746 448.21999999999997 266.062 449.15599999999995Q265.378 450.092 264.90999999999997 451.154Q264.442 452.21599999999995 264.442 453.296Q264.442 454.12399999999997 264.72999999999996 454.736Q265.27 454.736 265.972 454.682Q266.674 454.628 267.43 454.628Q268.366 454.628 268.90599999999995 455.024Q269.44599999999997 455.41999999999996 269.44599999999997 455.924Q269.44599999999997 456.284 269.014 456.60799999999995Q268.582 456.93199999999996 267.64599999999996 456.93199999999996Q266.45799999999997 456.93199999999996 265.504 456.40999999999997Q264.55 455.888 264.01 455.34799999999996Q261.634 455.67199999999997 259.978 457.11199999999997Q258.322 458.55199999999996 257.45799999999997 460.51399999999995Q256.594 462.47599999999994 256.594 464.41999999999996Q256.594 465.96799999999996 257.188 467.29999999999995Q257.782 468.63199999999995 259.006 469.44199999999995Q260.22999999999996 470.25199999999995 262.102 470.25199999999995Q264.046 470.25199999999995 265.648 469.54999999999995Q267.25 468.84799999999996 268.402 467.73199999999997Q269.554 466.616 270.18399999999997 465.37399999999997Q270.81399999999996 464.13199999999995 270.81399999999996 463.05199999999996Q270.81399999999996 462.116 270.14799999999997 461.486Q269.48199999999997 460.856 268.402 460.54999999999995Q267.322 460.24399999999997 266.09799999999996 460.24399999999997Q264.83799999999997 460.24399999999997 263.596 460.58599999999996Q262.354 460.92799999999994 261.49 461.63Q260.626 462.332 260.44599999999997 463.412Q260.44599999999997 463.484 260.428 463.57399999999996Q260.40999999999997 463.664 260.40999999999997 463.736Q260.40999999999997 464.52799999999996 261.00399999999996 465.30199999999996Q261.59799999999996 466.07599999999996 262.858 466.724Q263.18199999999996 466.86799999999994 263.18199999999996 467.26399999999995Q263.18199999999996 467.65999999999997 262.822 467.47999999999996Q260.842 466.436 259.924 465.19399999999996Q259.006 463.95199999999994 259.006 462.83599999999996Q259.006 461.21599999999995 260.75199999999995 460.04599999999994Q262.498 458.876 265.738 458.876H272.11Q272.686 458.876 273.82 458.62399999999997Q274.954 458.37199999999996 276.142 457.88599999999997Q277.33 457.4 278.176 456.734Q279.022 456.068 279.022 455.20399999999995Q279.022 454.736 278.698 454.19599999999997Q278.626 454.08799999999997 278.626 453.94399999999996Q278.626 453.72799999999995 278.806 453.72799999999995Q278.95 453.72799999999995 279.058 453.90799999999996Q279.59799999999996 454.7 279.59799999999996 455.52799999999996Q279.59799999999996 456.49999999999994 278.89599999999996 457.328Q278.19399999999996 458.15599999999995 277.006 458.78599999999994Q275.818 459.41599999999994 274.36 459.73999999999995Q272.902 460.06399999999996 271.39 460.02799999999996Q272.07399999999996 460.604 272.39799999999997 461.32399999999996Q272.722 462.044 272.722 462.83599999999996Q272.722 464.16799999999995 271.92999999999995 465.554Q271.138 466.93999999999994 269.698 468.10999999999996Q268.258 469.28 266.332 470.0Q264.406 470.71999999999997 262.102 470.71999999999997ZM267.64599999999996 456.32Q268.834 456.32 268.834 455.852Q268.834 455.67199999999997 268.528 455.47399999999993Q268.222 455.27599999999995 267.71799999999996 455.23999999999995Q267.502 455.20399999999995 266.998 455.20399999999995Q266.49399999999997 455.20399999999995 265.936 455.20399999999995Q265.378 455.20399999999995 265.018 455.20399999999995Q265.918 456.32 267.64599999999996 456.32Z M300.262 472.95199999999994Q296.986 472.95199999999994 294.448 471.6379999999999Q291.91 470.32399999999996 290.48800000000006 467.75Q289.06600000000003 465.176 289.06600000000003 461.43199999999996Q289.06600000000003 459.2 289.64200000000005 456.96799999999996Q290.218 454.736 291.20799999999997 452.68399999999997Q292.198 450.63199999999995 293.422 448.904Q292.882 446.74399999999997 292.882 444.224Q292.882 442.316 293.314 440.58799999999997Q293.458 440.08399999999995 293.818 440.08399999999995Q294.106 440.08399999999995 294.07 440.44399999999996Q293.962 441.164 293.89 441.974Q293.818 442.784 293.818 443.9Q293.818 445.98799999999994 294.214 447.85999999999996Q294.574 447.39199999999994 294.934 446.996Q296.41 445.376 298.42600000000004 443.95399999999995Q300.442 442.532 302.908 441.668Q305.374 440.804 308.146 440.804Q310.738 440.804 312.898 441.758Q315.058 442.712 316.37199999999996 444.49399999999997Q317.686 446.27599999999995 317.686 448.796Q317.686 450.38 316.84000000000003 452.03599999999994Q315.994 453.69199999999995 314.428 455.078Q312.862 456.46399999999994 310.648 457.328Q308.434 458.19199999999995 305.698 458.19199999999995Q302.098 458.19199999999995 299.11 456.60799999999995Q296.122 455.02399999999994 294.466 451.784Q293.026 454.34 292.342 456.96799999999996Q291.658 459.59599999999995 291.658 461.972Q291.658 465.42799999999994 292.81 467.58799999999997Q293.962 469.748 295.996 470.774Q298.03000000000003 471.79999999999995 300.658 471.79999999999995Q305.338 471.79999999999995 308.884 469.44199999999995Q312.43 467.08399999999995 314.734 462.152Q315.166 462.152 315.166 462.47599999999994Q312.934 467.804 309.064 470.37799999999993Q305.194 472.95199999999994 300.262 472.95199999999994ZM296.014 449.37199999999996Q295.546 450.02 295.11400000000003 450.70399999999995Q296.374 453.65599999999995 298.966 455.45599999999996Q301.558 457.256 305.482 457.256Q307.966 457.256 309.928 456.5Q311.89 455.74399999999997 313.24 454.484Q314.59000000000003 453.224 315.31000000000006 451.69399999999996Q316.03000000000003 450.164 316.03000000000003 448.616Q316.03000000000003 446.70799999999997 315.004 445.268Q313.978 443.828 312.214 443.018Q310.45 442.20799999999997 308.218 442.20799999999997Q305.986 442.20799999999997 303.736 443.144Q301.486 444.08 299.488 445.7Q297.49 447.32 296.014 449.37199999999996Z M322.546 469.20799999999997Q321.718 469.20799999999997 321.088 468.74Q320.458 468.272 320.458 466.832Q320.458 466.21999999999997 320.548 465.67999999999995Q320.63800000000003 465.14 320.78200000000004 464.52799999999996Q320.458 465.068 319.88200000000006 465.86Q319.30600000000004 466.652 318.60400000000004 467.408Q317.902 468.164 317.164 468.668Q316.426 469.17199999999997 315.778 469.17199999999997Q314.84200000000004 469.17199999999997 314.266 468.32599999999996Q313.69 467.47999999999996 313.69 466.11199999999997Q313.69 464.63599999999997 314.374 462.94399999999996Q315.058 461.25199999999995 316.246 459.70399999999995Q317.434 458.15599999999995 318.982 457.18399999999997Q320.53000000000003 456.212 322.22200000000004 456.212Q323.05 456.212 323.80600000000004 456.48199999999997Q324.562 456.75199999999995 325.13800000000003 457.364Q325.39 457.616 325.39 457.93999999999994Q325.39 458.15599999999995 325.21000000000004 458.29999999999995Q325.03000000000003 458.44399999999996 324.742 458.37199999999996Q324.346 457.11199999999997 323.05 457.11199999999997Q322.438 457.11199999999997 321.646 457.508Q320.67400000000004 458.01199999999994 319.576 459.10999999999996Q318.478 460.20799999999997 317.524 461.59399999999994Q316.57 462.97999999999996 315.95799999999997 464.38399999999996Q315.346 465.78799999999995 315.346 466.93999999999994Q315.346 468.128 316.24600000000004 468.128Q317.038 468.128 317.884 467.37199999999996Q318.73 466.616 319.504 465.48199999999997Q320.278 464.34799999999996 320.92600000000004 463.23199999999997Q321.574 462.116 321.934 461.43199999999996Q322.474 460.46 322.942 459.812Q323.41 459.164 324.274 459.164Q324.67 459.164 325.06600000000003 459.272Q325.462 459.38 325.894 459.308Q324.814 460.388 324.004 461.864Q323.194 463.34 322.76200000000006 464.76199999999994Q322.33000000000004 466.18399999999997 322.33000000000004 467.15599999999995Q322.33000000000004 468.236 323.05 468.236Q323.62600000000003 468.236 324.29200000000003 467.58799999999997Q324.958 466.93999999999994 325.588 465.94999999999993Q326.218 464.96 326.75800000000004 463.93399999999997Q327.298 462.90799999999996 327.622 462.152Q327.802 462.152 327.928 462.188Q328.05400000000003 462.224 328.05400000000003 462.47599999999994Q328.01800000000003 462.61999999999995 327.928 462.7819999999999Q327.838 462.94399999999996 327.658 463.34Q327.37 463.91599999999994 326.866 464.8879999999999Q326.362 465.85999999999996 325.678 466.84999999999997Q324.994 467.84 324.202 468.524Q323.41 469.20799999999997 322.546 469.20799999999997Z M324.166 469.388Q325.462 466.76 326.65 464.186Q327.83799999999997 461.61199999999997 329.098 459.272Q329.818 457.97599999999994 330.322 457.45399999999995Q330.82599999999996 456.93199999999996 331.654 456.93199999999996Q331.942 456.93199999999996 332.26599999999996 457.02199999999993Q332.59 457.11199999999997 332.914 457.11199999999997Q333.13 457.11199999999997 333.238 457.07599999999996Q332.734 457.364 331.924 458.49799999999993Q331.114 459.63199999999995 330.28599999999994 461.10799999999995Q329.45799999999997 462.58399999999995 328.81 463.87999999999994Q329.49399999999997 463.05199999999996 330.25 462.22399999999993Q331.006 461.39599999999996 331.906 460.64Q332.77 459.88399999999996 333.976 459.07399999999996Q335.182 458.26399999999995 336.334 457.72399999999993Q337.486 457.18399999999997 338.17 457.18399999999997Q338.42199999999997 457.18399999999997 338.53 457.21999999999997Q338.53 457.21999999999997 338.134 457.92199999999997Q337.738 458.62399999999997 337.144 459.7579999999999Q336.55 460.89199999999994 335.938 462.16999999999996Q335.32599999999996 463.448 334.84 464.61799999999994Q334.354 465.78799999999995 334.21 466.58Q334.102 467.04799999999994 334.102 467.44399999999996Q334.102 468.02 334.318 468.19999999999993Q334.534 468.37999999999994 334.786 468.37999999999994Q335.46999999999997 468.37999999999994 336.18999999999994 467.7679999999999Q336.90999999999997 467.15599999999995 337.57599999999996 466.202Q338.24199999999996 465.248 338.818 464.168Q339.394 463.08799999999997 339.78999999999996 462.152Q340.222 462.152 340.222 462.47599999999994Q339.82599999999996 463.448 339.23199999999997 464.61799999999994Q338.638 465.78799999999995 337.9 466.832Q337.162 467.876 336.26199999999994 468.55999999999995Q335.36199999999997 469.24399999999997 334.318 469.24399999999997Q333.598 469.24399999999997 332.824 468.74Q332.05 468.236 332.05 466.86799999999994Q332.05 466.472 332.122 466.02199999999993Q332.194 465.57199999999995 332.37399999999997 465.032Q332.662 464.31199999999995 333.058 463.4839999999999Q333.454 462.65599999999995 334.354 461.21599999999995Q334.606 460.82 334.65999999999997 460.604Q334.714 460.388 334.714 460.24399999999997Q334.714 459.81199999999995 334.318 459.81199999999995Q333.99399999999997 459.81199999999995 333.364 460.17199999999997Q332.734 460.532 331.798 461.43199999999996Q330.89799999999997 462.296 329.65599999999995 463.88Q328.414 465.46399999999994 326.794 468.55999999999995Q326.542 469.02799999999996 326.236 469.06399999999996Q325.93 469.09999999999997 325.39 469.13599999999997Q325.03 469.17199999999997 324.706 469.18999999999994Q324.382 469.20799999999997 324.166 469.388Z M342.886 469.24399999999997Q340.906 469.24399999999997 339.952 468.19999999999993Q338.998 467.15599999999995 338.998 465.39199999999994Q338.998 464.56399999999996 339.322 463.4839999999999Q339.646 462.40399999999994 340.18600000000004 461.28799999999995Q340.726 460.17199999999997 341.374 459.308Q342.418 457.90399999999994 343.678 457.13Q344.938 456.356 346.234 456.356Q347.602 456.356 348.196 456.95Q348.79 457.544 348.79 458.33599999999996Q348.79 459.092 348.43 459.686Q348.07 460.28 347.62 460.64Q347.17 460.99999999999994 346.846 460.99999999999994Q346.558 460.99999999999994 346.342 460.784Q346.63 460.424 346.954 459.91999999999996Q347.278 459.41599999999994 347.42199999999997 458.948Q347.566 458.51599999999996 347.566 458.08399999999995Q347.566 457.14799999999997 346.702 457.14799999999997Q345.658 457.14799999999997 344.668 458.01199999999994Q343.678 458.876 342.868 460.226Q342.058 461.57599999999996 341.572 463.06999999999994Q341.086 464.56399999999996 341.086 465.82399999999996Q341.086 466.97599999999994 341.572 467.73199999999997Q342.058 468.48799999999994 343.174 468.48799999999994Q344.65 468.48799999999994 345.76599999999996 467.534Q346.882 466.58 347.746 465.12199999999996Q348.61 463.664 349.258 462.152Q349.402 462.152 349.546 462.206Q349.69 462.26 349.69 462.47599999999994Q348.96999999999997 464.27599999999995 347.998 465.82399999999996Q347.026 467.37199999999996 345.784 468.308Q344.542 469.24399999999997 342.886 469.24399999999997Z M349.29400000000004 462.044Q349.582 461.43199999999996 350.05 460.082Q350.51800000000003 458.73199999999997 351.02200000000005 457.07599999999996Q351.526 455.41999999999996 351.778 453.94399999999996Q351.886 453.36799999999994 352.174 453.09799999999996Q352.462 452.828 352.786 452.828Q353.254 452.828 353.65 453.27799999999996Q354.046 453.72799999999995 354.046 454.556Q354.046 455.56399999999996 353.452 456.284Q352.858 457.00399999999996 351.994 457.652Q352.35400000000004 457.688 352.75 457.706Q353.146 457.724 353.61400000000003 457.724Q355.30600000000004 457.724 356.962 457.508Q357.034 457.724 357.034 457.832Q357.034 458.29999999999995 356.764 459.02Q356.494 459.73999999999995 356.206 460.316Q356.062 460.64 355.63 461.486Q355.19800000000004 462.332 354.694 463.394Q354.19 464.45599999999996 353.848 465.48199999999997Q353.50600000000003 466.508 353.50600000000003 467.22799999999995Q353.50600000000003 468.164 354.226 468.164Q354.91 468.164 356.134 466.562Q357.358 464.96 358.582 462.152Q359.014 462.152 359.014 462.47599999999994Q358.618 463.448 358.024 464.59999999999997Q357.43 465.75199999999995 356.71000000000004 466.77799999999996Q355.99 467.804 355.16200000000003 468.46999999999997Q354.334 469.13599999999997 353.434 469.13599999999997Q352.75 469.13599999999997 352.06600000000003 468.578Q351.382 468.02 351.382 466.76Q351.382 465.64399999999995 351.814 464.582Q352.24600000000004 463.52 352.78600000000006 462.58399999999995Q353.326 461.64799999999997 353.75800000000004 460.928Q354.19 460.20799999999997 354.19 459.77599999999995Q354.19 459.128 353.38 458.84Q352.57 458.55199999999996 351.274 458.51599999999996Q350.62600000000003 460.17199999999997 350.302 460.96399999999994Q349.978 461.756 349.69 462.47599999999994Q349.11400000000003 462.47599999999994 349.29400000000004 462.044Z M361.17400000000004 469.24399999999997Q359.84200000000004 469.24399999999997 358.78000000000003 468.38Q357.718 467.51599999999996 357.718 465.75199999999995Q357.718 464.27599999999995 358.384 462.61999999999995Q359.05 460.96399999999994 360.148 459.506Q361.24600000000004 458.04799999999994 362.596 457.13Q363.946 456.212 365.314 456.212Q365.99800000000005 456.212 366.6460000000001 456.60799999999995Q367.29400000000004 457.00399999999996 367.29400000000004 457.97599999999994Q367.29400000000004 458.876 366.61 459.95599999999996Q365.92600000000004 461.03599999999994 364.66600000000005 461.972Q364.12600000000003 462.36799999999994 363.298 462.72799999999995Q362.47 463.08799999999997 361.64200000000005 463.322Q360.814 463.556 360.274 463.556Q360.09400000000005 463.98799999999994 359.932 464.70799999999997Q359.77000000000004 465.42799999999994 359.77000000000004 466.18399999999997Q359.77000000000004 467.08399999999995 360.13 467.804Q360.49 468.52399999999994 361.46200000000005 468.52399999999994Q362.65000000000003 468.52399999999994 363.67600000000004 467.8399999999999Q364.702 467.15599999999995 365.512 466.11199999999997Q366.322 465.068 366.898 463.98799999999994Q367.47400000000005 462.90799999999996 367.798 462.152Q368.23 462.152 368.23 462.47599999999994Q367.762 463.484 367.168 464.67199999999997Q366.574 465.85999999999996 365.764 466.88599999999997Q364.954 467.912 363.82000000000005 468.578Q362.68600000000004 469.24399999999997 361.17400000000004 469.24399999999997ZM360.526 462.90799999999996Q361.03000000000003 462.90799999999996 362.218 462.53Q363.406 462.152 364.37800000000004 461.32399999999996Q365.314 460.496 365.818 459.506Q366.322 458.51599999999996 366.322 457.832Q366.322 457.03999999999996 365.74600000000004 457.03999999999996Q365.314 457.03999999999996 364.558 457.616Q363.802 458.19199999999995 362.68600000000004 459.55999999999995Q362.002 460.424 361.39 461.43199999999996Q360.778 462.43999999999994 360.526 462.90799999999996Z M369.49 469.20799999999997Q368.158 469.20799999999997 367.528 468.39799999999997Q366.898 467.58799999999997 366.898 466.472Q366.898 465.32 367.22200000000004 464.096Q367.54600000000005 462.87199999999996 367.79800000000006 462.044Q368.374 460.02799999999996 369.25600000000003 457.74199999999996Q370.13800000000003 455.45599999999996 371.20000000000005 453.24199999999996Q372.26200000000006 451.02799999999996 373.30600000000004 449.26399999999995Q374.134 447.85999999999996 375.088 447.15799999999996Q376.04200000000003 446.45599999999996 376.76200000000006 446.45599999999996Q377.338 446.45599999999996 377.68000000000006 446.87Q378.02200000000005 447.284 378.02200000000005 448.11199999999997Q378.02200000000005 448.688 377.82400000000007 449.48Q377.62600000000003 450.272 377.158 451.28Q375.898 454.08799999999997 374.15200000000004 456.89599999999996Q372.40600000000006 459.70399999999995 369.742 462.152Q369.31000000000006 463.15999999999997 369.02200000000005 464.31199999999995Q368.73400000000004 465.46399999999994 368.73400000000004 466.18399999999997Q368.73400000000004 468.41599999999994 370.24600000000004 468.41599999999994Q371.398 468.41599999999994 372.802 466.74199999999996Q374.206 465.068 375.466 462.152Q375.61 462.152 375.754 462.206Q375.898 462.26 375.898 462.47599999999994Q375.502 463.448 374.908 464.61799999999994Q374.314 465.78799999999995 373.54 466.832Q372.766 467.876 371.75800000000004 468.542Q370.75000000000006 469.20799999999997 369.49 469.20799999999997ZM370.03000000000003 460.99999999999994Q371.326 459.66799999999995 372.55000000000007 457.92199999999997Q373.77400000000006 456.176 374.836 454.28599999999994Q375.898 452.39599999999996 376.61800000000005 450.70399999999995Q376.87000000000006 450.164 377.03200000000004 449.51599999999996Q377.194 448.86799999999994 377.194 448.436Q377.194 447.93199999999996 376.942 447.93199999999996Q376.79800000000006 447.93199999999996 376.51000000000005 448.202Q376.22200000000004 448.472 375.754 449.11999999999995Q375.07000000000005 450.02 374.26000000000005 451.568Q373.45000000000005 453.116 372.62200000000007 454.88Q371.79400000000004 456.64399999999995 371.11 458.2819999999999Q370.42600000000004 459.91999999999996 370.03000000000003 460.99999999999994Z M378.05800000000005 469.24399999999997Q376.72600000000006 469.24399999999997 375.66400000000004 468.38Q374.60200000000003 467.51599999999996 374.60200000000003 465.75199999999995Q374.60200000000003 464.27599999999995 375.26800000000003 462.61999999999995Q375.934 460.96399999999994 377.03200000000004 459.506Q378.13000000000005 458.04799999999994 379.48 457.13Q380.83000000000004 456.212 382.19800000000004 456.212Q382.88200000000006 456.212 383.5300000000001 456.60799999999995Q384.17800000000005 457.00399999999996 384.17800000000005 457.97599999999994Q384.17800000000005 458.876 383.494 459.95599999999996Q382.81000000000006 461.03599999999994 381.55000000000007 461.972Q381.01000000000005 462.36799999999994 380.182 462.72799999999995Q379.35400000000004 463.08799999999997 378.52600000000007 463.322Q377.69800000000004 463.556 377.158 463.556Q376.97800000000007 463.98799999999994 376.81600000000003 464.70799999999997Q376.65400000000005 465.42799999999994 376.65400000000005 466.18399999999997Q376.65400000000005 467.08399999999995 377.014 467.804Q377.374 468.52399999999994 378.34600000000006 468.52399999999994Q379.53400000000005 468.52399999999994 380.56000000000006 467.8399999999999Q381.586 467.15599999999995 382.396 466.11199999999997Q383.206 465.068 383.78200000000004 463.98799999999994Q384.35800000000006 462.90799999999996 384.682 462.152Q385.11400000000003 462.152 385.11400000000003 462.47599999999994Q384.646 463.484 384.052 464.67199999999997Q383.458 465.85999999999996 382.648 466.88599999999997Q381.838 467.912 380.70400000000006 468.578Q379.57000000000005 469.24399999999997 378.05800000000005 469.24399999999997ZM377.41 462.90799999999996Q377.91400000000004 462.90799999999996 379.10200000000003 462.53Q380.29 462.152 381.26200000000006 461.32399999999996Q382.19800000000004 460.496 382.702 459.506Q383.206 458.51599999999996 383.206 457.832Q383.206 457.03999999999996 382.63000000000005 457.03999999999996Q382.19800000000004 457.03999999999996 381.442 457.616Q380.68600000000004 458.19199999999995 379.57000000000005 459.55999999999995Q378.886 460.424 378.274 461.43199999999996Q377.66200000000003 462.43999999999994 377.41 462.90799999999996Z M392.13400000000007 450.092Q391.66600000000005 450.77599999999995 391.09000000000003 451.81999999999994Q390.51400000000007 452.864 390.028 453.836Q389.54200000000003 454.808 389.2900000000001 455.31199999999995H392.60200000000003Q392.60200000000003 455.45599999999996 392.476 455.78Q392.35 456.104 391.99000000000007 456.248H388.85800000000006Q388.42600000000004 457.21999999999997 387.86800000000005 458.58799999999997Q387.31000000000006 459.95599999999996 386.78800000000007 461.43199999999996Q386.2660000000001 462.90799999999996 385.9240000000001 464.1859999999999Q385.58200000000005 465.46399999999994 385.58200000000005 466.256Q385.58200000000005 467.33599999999996 385.87000000000006 467.85799999999995Q386.1580000000001 468.37999999999994 386.91400000000004 468.37999999999994Q387.886 468.37999999999994 388.78600000000006 467.42599999999993Q389.68600000000004 466.472 390.49600000000004 465.032Q391.30600000000004 463.592 391.91800000000006 462.152Q392.35 462.152 392.35 462.47599999999994Q391.95400000000006 463.448 391.37800000000004 464.59999999999997Q390.802 465.75199999999995 390.064 466.81399999999996Q389.326 467.876 388.408 468.542Q387.49000000000007 469.20799999999997 386.374 469.20799999999997Q384.862 469.20799999999997 384.322 468.36199999999997Q383.78200000000004 467.51599999999996 383.78200000000004 466.18399999999997Q383.78200000000004 465.212 384.14200000000005 463.82599999999996Q384.50200000000007 462.43999999999994 385.02400000000006 460.96399999999994Q385.54600000000005 459.48799999999994 386.05000000000007 458.2099999999999Q386.55400000000003 456.93199999999996 386.84200000000004 456.248H384.53800000000007Q384.53800000000007 455.96 384.7900000000001 455.63599999999997Q385.04200000000003 455.31199999999995 385.33000000000004 455.31199999999995H387.23800000000006Q387.52600000000007 454.736 387.90400000000005 453.87199999999996Q388.28200000000004 453.008 388.93000000000006 451.96399999999994Q389.47 451.09999999999997 390.31600000000003 450.596Q391.16200000000003 450.092 392.13400000000007 450.092Z M399.37000000000006 450.092Q398.90200000000004 450.77599999999995 398.326 451.81999999999994Q397.75000000000006 452.864 397.264 453.836Q396.778 454.808 396.52600000000007 455.31199999999995H399.838Q399.838 455.45599999999996 399.712 455.78Q399.586 456.104 399.22600000000006 456.248H396.09400000000005Q395.66200000000003 457.21999999999997 395.10400000000004 458.58799999999997Q394.54600000000005 459.95599999999996 394.02400000000006 461.43199999999996Q393.50200000000007 462.90799999999996 393.1600000000001 464.1859999999999Q392.81800000000004 465.46399999999994 392.81800000000004 466.256Q392.81800000000004 467.33599999999996 393.10600000000005 467.85799999999995Q393.39400000000006 468.37999999999994 394.15000000000003 468.37999999999994Q395.122 468.37999999999994 396.02200000000005 467.42599999999993Q396.922 466.472 397.732 465.032Q398.54200000000003 463.592 399.15400000000005 462.152Q399.586 462.152 399.586 462.47599999999994Q399.19000000000005 463.448 398.61400000000003 464.59999999999997Q398.038 465.75199999999995 397.3 466.81399999999996Q396.562 467.876 395.644 468.542Q394.72600000000006 469.20799999999997 393.61 469.20799999999997Q392.098 469.20799999999997 391.558 468.36199999999997Q391.01800000000003 467.51599999999996 391.01800000000003 466.18399999999997Q391.01800000000003 465.212 391.37800000000004 463.82599999999996Q391.73800000000006 462.43999999999994 392.26000000000005 460.96399999999994Q392.78200000000004 459.48799999999994 393.28600000000006 458.2099999999999Q393.79 456.93199999999996 394.07800000000003 456.248H391.77400000000006Q391.77400000000006 455.96 392.02600000000007 455.63599999999997Q392.278 455.31199999999995 392.56600000000003 455.31199999999995H394.47400000000005Q394.76200000000006 454.736 395.14000000000004 453.87199999999996Q395.51800000000003 453.008 396.16600000000005 451.96399999999994Q396.706 451.09999999999997 397.552 450.596Q398.398 450.092 399.37000000000006 450.092Z M401.74600000000004 469.24399999999997Q400.41400000000004 469.24399999999997 399.35200000000003 468.38Q398.29 467.51599999999996 398.29 465.75199999999995Q398.29 464.27599999999995 398.956 462.61999999999995Q399.622 460.96399999999994 400.72 459.506Q401.81800000000004 458.04799999999994 403.168 457.13Q404.51800000000003 456.212 405.886 456.212Q406.57000000000005 456.212 407.2180000000001 456.60799999999995Q407.86600000000004 457.00399999999996 407.86600000000004 457.97599999999994Q407.86600000000004 458.876 407.182 459.95599999999996Q406.49800000000005 461.03599999999994 405.23800000000006 461.972Q404.69800000000004 462.36799999999994 403.87 462.72799999999995Q403.04200000000003 463.08799999999997 402.21400000000006 463.322Q401.386 463.556 400.846 463.556Q400.66600000000005 463.98799999999994 400.504 464.70799999999997Q400.34200000000004 465.42799999999994 400.34200000000004 466.18399999999997Q400.34200000000004 467.08399999999995 400.702 467.804Q401.062 468.52399999999994 402.03400000000005 468.52399999999994Q403.22200000000004 468.52399999999994 404.24800000000005 467.8399999999999Q405.274 467.15599999999995 406.084 466.11199999999997Q406.894 465.068 407.47 463.98799999999994Q408.04600000000005 462.90799999999996 408.37 462.152Q408.802 462.152 408.802 462.47599999999994Q408.334 463.484 407.74 464.67199999999997Q407.146 465.85999999999996 406.336 466.88599999999997Q405.526 467.912 404.39200000000005 468.578Q403.25800000000004 469.24399999999997 401.74600000000004 469.24399999999997ZM401.098 462.90799999999996Q401.60200000000003 462.90799999999996 402.79 462.53Q403.978 462.152 404.95000000000005 461.32399999999996Q405.886 460.496 406.39 459.506Q406.894 458.51599999999996 406.894 457.832Q406.894 457.03999999999996 406.31800000000004 457.03999999999996Q405.886 457.03999999999996 405.13 457.616Q404.374 458.19199999999995 403.25800000000004 459.55999999999995Q402.574 460.424 401.962 461.43199999999996Q401.35 462.43999999999994 401.098 462.90799999999996Z"/>

</svg>